<svg width="77" height="69" viewBox="0 0 77 69" fill="none" xmlns="http://www.w3.org/2000/svg">
<path d="M50.5501 40.3275C41.9984 40.4263 34.3749 40.4263 25.8142 40.4263C27.3748 36.1197 29.3704 31.9927 31.1596 27.8747C34.1552 21.2284 36.1642 16.9038 39.0566 10.2575C40.8324 15.121 42.3257 17.6717 43.9984 22.5397C46.2182 28.5348 48.4514 34.3369 50.5501 40.3275ZM23.9308 66.1223C21.2581 66.028 18.7065 65.8394 16.0338 65.6508C17.9262 60.0419 20.0384 53.9928 22.3747 48.4782C23.1505 46.6954 24.0429 44.9171 24.8232 43.1387C34.1597 42.8513 42.4378 42.766 51.6622 43.1387C52.9985 46.8795 54.447 50.535 55.7833 54.1859C57.1152 57.8369 57.9 62.0223 59.1242 65.6733C56.456 65.8619 54.8506 66.046 52.1734 66.1358V68.3857C60.178 68.1971 68.2903 68.1027 76.2993 68.3857V66.1358C74.1872 66.046 72.1827 65.9472 70.0705 65.7631C62.0615 49.7536 55.725 32.837 49.7205 16.1763C47.8325 10.8413 45.837 5.59164 44.384 0.265625H40.0477C39.3795 2.13826 38.7158 3.91211 37.9355 5.68595C36.1552 9.99257 34.0476 14.3037 32.0475 18.6103C29.9354 23.1998 27.7201 27.7894 25.4914 32.3699C23.2671 37.0627 20.9218 41.5535 18.6034 46.1385C15.8186 51.6622 12.9351 57.0959 9.81848 62.5253C9.25794 63.4548 8.70187 64.82 8.03819 65.7586C5.58972 65.9472 3.26232 66.037 0.804886 66.1268L0.697266 68.3857C8.48214 68.1027 16.1504 68.1027 23.9353 68.3857V66.1223H23.9308Z" fill="white"/>
</svg>
