<svg width="52" height="68" viewBox="0 0 52 68" fill="none" xmlns="http://www.w3.org/2000/svg">
<path d="M0.818757 67.6277C4.0206 67.6277 7.21797 67.5244 10.4243 67.5244C13.0701 67.5244 15.828 67.5244 18.4737 67.6277C21.1195 67.722 23.6622 67.9106 26.3035 67.9106C29.5098 67.9106 36.5772 68.0094 43.8553 63.6309C46.1692 62.1984 47.6042 60.7658 48.2724 60.0069C50.6985 56.9577 51.9182 52.7678 51.9182 49.1528C51.9182 45.1425 50.3666 42.0978 49.5998 40.6743C47.7164 37.8137 44.6311 34.8543 36.5772 33.5205C34.6937 33.2376 32.8282 33.049 30.9493 32.8559L30.8327 32.4832C31.7161 32.3799 31.9717 32.1957 32.8596 32.0071C35.9449 31.2347 38.1557 30.1884 39.2543 29.6181C42.2365 27.9924 47.8643 24.2875 47.8643 16.0919C47.8643 12.0862 46.6446 9.32439 45.8823 7.79754C45.5459 7.1374 44.4383 5.22884 42.4562 3.7918C37.492 -0.101667 30.7251 0.0734586 29.1824 0.0734586C26.4201 0.0734586 23.6667 0.262089 20.9088 0.374358C17.4872 0.549497 13.9535 0.657249 10.5364 0.657249C7.22245 0.657249 4.02509 0.553987 0.823246 0.374358L0.603516 2.56135C3.2493 2.65116 6.51392 2.84873 9.1597 3.13165C9.60365 10.6626 9.60365 18.2744 9.60365 25.8009C9.60365 32.9547 9.60365 40.0904 9.49154 47.1454C9.49154 53.1495 9.49154 59.0548 8.83233 64.9647C6.29418 65.1533 3.24929 65.2476 0.823246 65.3419V67.6277H0.818757ZM18.0567 3.13165C21.0388 2.65114 23.411 2.82179 26.5053 2.82179C30.4739 2.82179 28.2407 2.85323 29.891 3.41457C31.882 4.28128 33.4247 5.61053 33.9762 6.18535C37.9494 10.0833 38.2812 14.7537 38.2812 16.4692C38.1646 22.6664 34.9718 28.6615 27.9089 31.0506C23.9357 32.2811 23.4021 31.8993 22.2944 31.8993C20.7518 31.8993 19.2675 32.1912 17.6127 32.0924C17.5096 29.3351 17.402 26.6676 17.402 23.9013C17.402 22.1814 17.5141 20.3761 17.5141 18.6561C17.5141 15.5171 17.5141 12.3736 17.6172 9.23008C17.7293 7.22721 17.837 5.22883 18.0567 3.13165ZM17.5051 34.4725C19.8191 34.275 22.2541 34.1896 24.6801 34.1896C34.1646 34.1896 36.0615 36.664 38.7117 39.6144C40.918 42.0888 41.8015 45.6185 41.8015 48.7666C41.8015 50.2844 41.5772 61.143 31.7609 64.4841C29.5502 65.2431 30.3529 65.1263 25.281 65.1263C21.7518 65.1263 19.3034 64.794 18.0926 64.6099C17.7607 60.4155 17.5051 56.6703 17.5051 52.4714C17.4065 46.4853 17.4065 40.4677 17.5051 34.4725Z" fill="white"/>
</svg>
