<svg width="77" height="101" viewBox="0 0 77 101" fill="none" xmlns="http://www.w3.org/2000/svg">
<path d="M74.8915 87.9012C72.9722 89.1317 71.0484 90.2229 69.1201 91.3187C66.6313 92.5447 56.8823 96.9187 46.9808 96.9187C37.8954 96.9187 31.2944 93.3665 28.411 91.5926C17.8279 84.7577 13.6932 73.8362 12.052 61.8235C11.3569 56.7714 11.3569 51.5757 11.3569 49.932C11.3569 30.6802 16.9982 20.0327 22.9131 13.6109C26.2136 10.3327 33.3662 3.7717 45.7431 3.7717C52.7477 3.7717 62.1335 5.01115 68.3174 8.15017C68.9991 8.55883 71.9498 10.3327 73.6045 11.5632L74.2906 20.0282H76.9005C76.9005 18.1241 76.7705 16.2021 76.7705 14.2845C76.7705 10.3327 76.9005 6.37186 76.9005 2.27181H73.6449C68.4251 2.27181 66.9004 1.72842 61.6895 1.04134C55.4966 0.228515 52.0616 0.228516 49.1826 0.228516C26.4872 0.228516 15.209 11.2937 9.84566 18.8067C1.03835 31.3628 0.634766 45.4323 0.634766 50.4934C0.634766 56.0933 1.32086 77.9273 17.4063 91.3187C28.272 100.471 39.6892 100.745 44.7745 100.745C59.9003 100.745 69.5282 94.8619 74.6045 91.871L74.8915 87.9012Z" fill="white"/>
</svg>
