<svg width="50" height="68" viewBox="0 0 50 68" fill="none" xmlns="http://www.w3.org/2000/svg">
<path d="M47.1839 55.2238C47.0807 57.6937 46.9641 60.8372 46.4305 61.5063C46.1076 61.8746 45.2511 62.0722 43.843 62.3551C36.8564 63.882 27.1701 64.358 26.5244 64.358C24.2687 64.4523 22.0041 64.358 19.8516 64.358C19.5332 62.1665 19.3135 60.0783 19.2103 57.8868C19.0982 55.116 19.0982 52.4575 18.9951 49.7047C18.9951 44.6571 18.9547 40.4044 19.161 35.3658C25.7262 35.267 28.9953 35.1457 31.2509 35.5229C32.9729 35.8103 35.4528 36.5738 35.668 36.6636C36.3093 37.0498 37.3855 37.8985 37.3855 38.5677C37.4932 40.09 37.6053 41.5226 37.7084 43.036L40.1883 42.9416C40.1883 40.3774 40.0717 37.8087 40.0717 35.24C40.0717 31.8181 40.1883 28.3872 40.399 24.8709H38.0313C38.0313 25.6343 37.816 29.8197 37.1748 30.5786C36.8519 31.1489 35.7667 31.2388 35.5559 31.342C30.0715 32.2941 24.9369 31.9842 19.3359 31.8854C19.4525 28.2704 19.3135 25.1628 19.4211 21.5477C19.5332 15.2607 19.4211 8.89285 19.9593 2.70012C21.5691 2.49803 23.1925 2.49803 24.8024 2.49803C33.3003 2.49803 38.6995 3.84077 41.2825 4.41558C44.722 5.2778 44.6233 7.50071 44.8341 11.8747H47.0942C47.0942 8.35395 47.0942 3.55785 47.1973 0.0371094C42.3632 0.131415 38.2555 0.131412 33.4124 0.230208C27.8114 0.230208 22.1118 0.320001 16.5108 0.320001C11.6721 0.320001 6.93662 0.230211 2.31323 0.0371094L2.20561 2.22857C4.57336 2.41718 7.72588 2.49803 10.0891 2.70012C10.5241 6.78669 10.6273 10.8822 10.7394 14.879C10.847 19.9221 10.847 24.8709 10.847 29.8197C10.847 35.2445 10.7394 40.6693 10.6317 45.9998C10.5286 50.6612 10.6317 55.4169 10.3089 59.9795C10.3089 61.6007 10.0936 63.123 9.88285 64.7352C7.0846 64.7352 3.38947 64.834 0.595703 64.9328V67.2006C1.23697 67.2006 1.99037 67.2006 2.63612 67.1198C9.84251 66.9312 16.9413 66.9312 24.1566 66.9312H30.8294C34.0626 66.8324 37.2869 66.8324 40.5066 66.8324C43.5201 66.9312 46.5337 67.0165 49.444 67.2006C49.5516 63.2218 49.444 59.2071 49.6593 55.2238H47.1839Z" fill="white"/>
</svg>
