<svg width="59" height="97" viewBox="0 0 59 97" fill="none" xmlns="http://www.w3.org/2000/svg">
<path d="M30.396 93.368C27.0327 93.2333 23.6649 93.0895 20.2927 93.0895C19.8936 86.4298 19.759 79.6263 19.62 72.9576C19.62 65.1976 19.62 57.4465 19.481 49.6955C20.5572 49.5518 21.638 49.5518 22.7187 49.5518C30.396 49.5518 38.7504 51.0472 40.7683 51.6041C41.1719 51.7298 42.9253 52.0038 43.737 52.6908C45.2213 54.0515 45.0868 57.5857 45.0868 61.6633L48.32 61.8025C48.19 57.8597 48.0465 54.1818 48.0465 50.3826C48.0465 45.4787 48.19 40.5838 48.32 35.8101L45.3514 35.6889C45.0868 39.3623 45.0868 42.892 44.1406 43.9833C43.3289 44.7961 41.3154 45.07 41.0419 45.07C32.8265 46.9741 20.8308 46.7002 19.481 46.57C19.481 38.9492 19.481 31.1982 19.62 23.5863C19.8936 17.0478 20.1537 10.5228 20.5572 3.98875C23.1178 3.85403 25.6784 3.85403 28.1089 3.85403C37.8086 3.85403 45.755 5.21472 49.1227 5.89731C49.3963 6.02755 51.2797 6.43173 52.764 7.25802C54.3784 8.07534 54.5129 9.43153 54.6475 10.1096C55.0511 11.4793 55.1901 12.2921 55.1901 14.8788H58.1498C58.0197 10.2533 58.1498 5.49315 58.2753 0.732962C50.5981 1.0069 43.1944 0.867679 35.5082 0.867679C23.9295 0.867679 12.4719 1.14162 0.749767 0.59375L0.615234 3.44985C3.84847 3.72379 7.21624 4.13244 10.454 4.53661C10.9876 11.4838 11.1266 18.4175 11.1266 25.212C11.1266 35.4284 10.9921 45.353 10.9921 55.4167C10.8575 68.0761 10.9921 80.5963 9.91583 92.9728C6.95165 93.2467 3.84847 93.2467 0.888782 93.3814V96.6417C5.19827 96.3723 9.51223 96.2375 13.9562 96.2375C19.3465 96.2375 24.8712 96.3723 30.2614 96.6417L30.396 93.368Z" fill="white"/>
</svg>
