<svg width="48" height="68" viewBox="0 0 48 68" fill="none" xmlns="http://www.w3.org/2000/svg">
<path d="M44.8333 55.1782C44.7347 57.2754 44.6226 60.0956 44.5194 62.1928C41.9544 62.8574 39.4611 63.3379 36.7929 63.7196C27.5954 64.9591 23.5281 64.8692 19.5729 64.8692C19.259 61.0476 19.0437 57.711 18.8195 53.8849C18.7208 49.9735 18.7208 46.1474 18.7208 42.2404V29.2307C18.7208 23.4152 18.7208 17.5817 19.0437 11.8471C19.2589 8.98198 19.4697 6.22018 19.7926 3.43592C22.3532 3.15301 25.0304 2.87457 27.5999 2.58267V0.386719C24.4967 0.485515 19.2634 0.570827 16.1513 0.570827C11.2364 0.570827 6.21389 0.570839 1.39319 0.386719L1.29454 2.58267C4.07037 2.87457 6.74754 3.153 9.52785 3.3461C10.1691 10.7962 10.779 18.3497 10.779 25.8043C10.779 32.6841 10.6669 39.4651 10.6669 46.3449C10.4651 57.0374 10.5638 58.699 9.50097 64.8109C6.83277 64.9097 3.52778 64.9995 0.864062 64.9995L0.751953 67.8421C7.69825 67.7433 14.649 67.8421 21.4922 67.8421C30.2547 67.9319 38.9274 67.7433 47.5822 67.8421C47.5822 66.1177 47.4701 64.3977 47.4701 62.6823C47.367 60.4863 47.4701 57.2709 47.4701 55.1738H44.8333V55.1782Z" fill="white"/>
</svg>
