<svg width="618" height="348" viewBox="0 0 618 348" fill="none" xmlns="http://www.w3.org/2000/svg">
<path d="M270.542 257.414C269.602 257.597 269.624 258.967 270.149 259.186C270.484 259.328 271.295 259.663 271.89 259.663C273.004 259.663 275.505 259.073 275.505 256.508C275.505 254.504 273.374 252.758 273.374 251.275C273.374 250.015 274.195 249.803 274.855 250.015C275.025 250.073 275.405 250.937 275.943 250.885C276.561 250.827 277.163 250.151 276.638 249.468C276.274 248.997 275.476 248.888 274.723 248.939C272.849 249.075 271.803 250.885 271.848 252.184C271.906 253.992 273.854 255.767 273.854 257.327C273.854 258.106 273.786 258.841 272.676 258.841C271.066 258.841 271.626 257.195 270.542 257.414Z" fill="white"/>
<path d="M270.542 257.414C269.602 257.597 269.624 258.967 270.149 259.186C270.484 259.328 271.295 259.663 271.89 259.663C273.004 259.663 275.505 259.073 275.505 256.508C275.505 254.504 273.374 252.758 273.374 251.275C273.374 250.015 274.195 249.803 274.855 250.015C275.025 250.073 275.405 250.937 275.943 250.885C276.561 250.827 277.163 250.151 276.638 249.468C276.274 248.997 275.476 248.888 274.723 248.939C272.849 249.075 271.803 250.885 271.848 252.184C271.906 253.992 273.854 255.767 273.854 257.327C273.854 258.106 273.786 258.841 272.676 258.841C271.066 258.841 271.626 257.195 270.542 257.414Z" fill="white"/>
<path d="M281.91 257.195C280.861 258.061 280.362 258.284 280.117 258.284C279.94 258.284 279.802 258.097 279.802 257.929C279.802 257.642 280.211 256.705 280.291 256.373L282.734 250.106C282.734 249.761 282.699 248.971 281.949 249.023C281.511 248.975 278.331 250.489 278.64 251.224C278.943 251.833 280.201 250.112 280.684 250.702C280.858 250.927 277.896 257.514 277.896 258.619C277.896 259.041 277.958 259.689 278.891 259.689C280.005 259.689 281.392 258.841 282.165 257.452C282.078 257.101 281.91 257.195 281.91 257.195Z" fill="white"/>
<path d="M281.91 257.195C280.861 258.061 280.362 258.284 280.117 258.284C279.94 258.284 279.802 258.097 279.802 257.929C279.802 257.642 280.211 256.705 280.291 256.373L282.734 250.106C282.734 249.761 282.699 248.971 281.949 249.023C281.511 248.975 278.331 250.489 278.64 251.224C278.943 251.833 280.201 250.112 280.684 250.702C280.858 250.927 277.896 257.514 277.896 258.619C277.896 259.041 277.958 259.689 278.891 259.689C280.005 259.689 281.392 258.841 282.165 257.452C282.078 257.101 281.91 257.195 281.91 257.195Z" fill="white"/>
<path fill-rule="evenodd" clip-rule="evenodd" d="M293.753 256.85C293.582 256.895 292.333 258.068 291.937 258.068C291.895 258.068 291.619 258.019 291.619 257.665C291.619 256.956 294.538 251.723 294.538 250.699C294.538 249.719 294.081 249.149 293.167 249.149C291.519 249.149 289.79 250.795 288.268 252.348C288.268 252.348 288.876 250.035 287.94 249.255C286.655 248.188 283.472 251.704 284.57 251.875C286.481 250.144 286.61 250.869 286.61 251.221C286.61 251.72 284.695 256.54 283.697 259.295C283.958 259.737 284.656 259.788 285.184 259.295C286.958 256.157 288.007 254.385 288.747 253.563C289.301 252.944 291.059 250.579 292.011 250.579C292.388 250.579 292.555 250.631 292.536 251.047C292.491 252.045 289.794 256.718 289.617 258.232C289.539 258.902 289.575 259.66 290.486 259.66C291.557 259.663 294.886 257.146 293.753 256.85Z" fill="white"/>
<path d="M293.753 256.85C293.582 256.895 292.333 258.068 291.937 258.068C291.895 258.068 291.619 258.019 291.619 257.665C291.619 256.956 294.538 251.723 294.538 250.699C294.538 249.719 294.081 249.149 293.167 249.149C291.519 249.149 289.79 250.795 288.268 252.348C288.268 252.348 288.876 250.035 287.94 249.255C286.655 248.188 283.472 251.704 284.57 251.875C286.481 250.144 286.61 250.869 286.61 251.221C286.61 251.72 284.695 256.54 283.697 259.295C283.958 259.737 284.656 259.788 285.184 259.295C286.958 256.157 288.007 254.385 288.747 253.563C289.301 252.944 291.059 250.579 292.011 250.579C292.388 250.579 292.555 250.631 292.536 251.047C292.491 252.045 289.794 256.718 289.617 258.232C289.539 258.902 289.575 259.66 290.486 259.66C291.557 259.663 294.886 257.146 293.753 256.85Z" fill="white"/>
<path d="M299.196 258.277C297.983 258.277 297.442 257.778 297.712 255.983C298.063 253.692 299.412 250.012 301.243 249.928C301.597 249.912 301.81 250.75 302.154 250.834C302.637 250.966 303.287 250.898 303.419 250.102C303.593 249.026 302.335 248.949 301.678 248.975C298.759 249.107 295.974 253.428 295.768 256.093C295.508 259.521 297.252 259.656 298.543 259.656C299.978 259.656 302.238 257.24 301.981 257.024C301.594 256.46 300.387 258.277 299.196 258.277Z" fill="white"/>
<path d="M299.195 258.277C297.982 258.277 297.441 257.778 297.711 255.983C298.062 253.692 299.411 250.012 301.242 249.928C301.596 249.912 301.809 250.75 302.153 250.834C302.636 250.966 303.286 250.898 303.421 250.102C303.592 249.026 302.333 248.949 301.68 248.975C298.76 249.107 295.976 253.428 295.77 256.093C295.51 259.521 297.254 259.656 298.545 259.656C299.98 259.656 302.24 257.24 301.982 257.024C301.593 256.46 300.386 258.277 299.195 258.277Z" fill="white"/>
<path fill-rule="evenodd" clip-rule="evenodd" d="M308.775 249.928C309.293 249.928 309.383 250.367 309.383 250.876C309.383 251.066 308.733 252.738 306.207 253.644C306.207 253.644 306.338 252.78 306.599 252.178C307.381 250.879 307.652 249.928 308.775 249.928ZM306.683 258.229C305.988 258.181 305.463 257.836 305.463 256.627C305.463 255.986 305.856 254.945 305.943 254.817C309.644 252.661 310.909 252.223 311.031 250.467C311.115 249.394 310.578 248.872 309.522 248.807C306.728 248.633 303.596 253.695 303.461 256.418C303.39 257.952 303.368 259.743 305.547 259.656C307.462 259.563 310.04 257.03 309.387 256.895C309.036 256.676 307.803 258.303 306.683 258.229Z" fill="white"/>
<path d="M308.775 249.928C309.293 249.928 309.383 250.367 309.383 250.876C309.383 251.066 308.733 252.738 306.207 253.644C306.207 253.644 306.338 252.78 306.599 252.178C307.381 250.879 307.652 249.928 308.775 249.928ZM306.683 258.229C305.988 258.181 305.463 257.836 305.463 256.627C305.463 255.986 305.856 254.945 305.943 254.817C309.644 252.661 310.909 252.223 311.031 250.467C311.115 249.394 310.578 248.872 309.522 248.807C306.731 248.633 303.596 253.695 303.461 256.418C303.39 257.952 303.368 259.743 305.547 259.656C307.465 259.563 310.04 257.03 309.387 256.895C309.036 256.676 307.803 258.303 306.683 258.229Z" fill="white"/>
<path d="M316.529 259.453H322.104C322.104 259.453 322.368 259.051 322.013 258.88C321.231 258.88 321.009 258.748 320.797 258.364C320.584 257.971 320.797 255.641 321.405 253.737L324.144 243.971C324.247 243.584 324.421 243.213 324.189 243.104C323.9 242.959 323.587 242.997 323.063 243.217C322.326 243.577 321.276 244.145 320.533 244.576C319.892 244.944 319.455 245.227 319.841 245.566C320.143 245.611 321.862 244.87 321.798 245.134L318.354 257.491C318.08 258.583 317.765 258.78 316.493 258.922C316.049 259.141 316.529 259.453 316.529 259.453Z" fill="white"/>
<path d="M316.529 259.453H322.104C322.104 259.453 322.368 259.051 322.013 258.88C321.231 258.88 321.009 258.748 320.797 258.364C320.584 257.971 320.797 255.641 321.405 253.737L324.144 243.971C324.247 243.584 324.421 243.213 324.189 243.104C323.9 242.959 323.587 242.997 323.063 243.217C322.326 243.577 321.276 244.145 320.533 244.576C319.892 244.944 319.455 245.227 319.841 245.566C320.143 245.611 321.862 244.87 321.798 245.134L318.354 257.491C318.08 258.583 317.765 258.78 316.493 258.922C316.049 259.141 316.529 259.453 316.529 259.453Z" fill="white"/>
<path fill-rule="evenodd" clip-rule="evenodd" d="M336.723 243.526C336.987 243.217 336.462 243.287 336.462 243.287H327.932L326.838 246.529L327.141 246.745C327.865 245.788 328.444 245.034 329.989 245.034H334.73L334.775 245.102L326.043 259.453H328.061L336.723 243.526Z" fill="white"/>
<path d="M336.723 243.526C336.987 243.217 336.462 243.287 336.462 243.287H327.932L326.838 246.529L327.141 246.745C327.865 245.788 328.444 245.034 329.989 245.034H334.73L334.775 245.102L326.043 259.453H328.068L336.723 243.526Z" fill="white"/>
<path fill-rule="evenodd" clip-rule="evenodd" d="M345.79 243.217C343.479 243.217 335.735 247.296 335.49 254.336C335.346 258.2 337.171 259.743 340.09 259.621C342.086 259.527 344.516 257.845 344.789 254.775C345.137 250.882 342.356 250.331 341.001 250.325C340.686 250.322 339.221 250.631 338.474 251.053C338.001 250.189 342.279 244.302 345.79 243.797C345.79 243.793 346.054 243.536 345.79 243.217ZM340.566 251.572C342.073 251.636 343.093 253.109 342.958 255.029C342.874 256.331 341.864 258.98 339.614 258.793C336.907 258.587 337.212 255.084 337.212 254.472C337.212 254.301 337.473 251.449 340.566 251.572Z" fill="white"/>
<path d="M345.79 243.217C343.479 243.217 335.735 247.296 335.49 254.336C335.346 258.2 337.171 259.743 340.09 259.621C342.086 259.527 344.516 257.845 344.789 254.775C345.137 250.882 342.356 250.331 341.001 250.325C340.686 250.322 339.221 250.631 338.474 251.053C338.001 250.189 342.279 244.302 345.79 243.797C345.79 243.793 346.054 243.536 345.79 243.217ZM340.566 251.572C342.073 251.636 343.093 253.109 342.958 255.029C342.874 256.331 341.864 258.98 339.614 258.793C336.907 258.587 337.212 255.084 337.212 254.472C337.212 254.301 337.473 251.449 340.566 251.572Z" fill="white"/>
<path d="M346.012 259.453H351.584C351.584 259.453 351.841 259.051 351.494 258.88C350.715 258.88 350.49 258.748 350.274 258.364C350.065 257.971 350.274 255.641 350.889 253.737L353.628 243.971C353.731 243.584 353.895 243.213 353.67 243.104C353.38 242.959 353.071 242.997 352.537 243.217C351.803 243.577 350.754 244.145 350.023 244.576C349.366 244.944 348.932 245.227 349.321 245.566C349.624 245.611 351.346 244.87 351.278 245.134L347.844 257.491C347.557 258.583 347.245 258.78 345.967 258.922C345.533 259.141 346.012 259.453 346.012 259.453Z" fill="white"/>
<path d="M346.012 259.453H351.584C351.584 259.453 351.841 259.051 351.494 258.88C350.715 258.88 350.49 258.748 350.274 258.364C350.065 257.971 350.274 255.641 350.889 253.737L353.628 243.971C353.731 243.584 353.895 243.213 353.67 243.104C353.38 242.959 353.071 242.997 352.537 243.217C351.803 243.577 350.754 244.145 350.023 244.576C349.366 244.944 348.932 245.227 349.321 245.566C349.624 245.611 351.346 244.87 351.278 245.134L347.844 257.491C347.557 258.583 347.245 258.78 345.967 258.922C345.533 259.141 346.012 259.453 346.012 259.453Z" fill="white"/>
<path d="M283.784 244.248C283.967 243.838 283.951 243.091 283.378 242.84C282.966 242.659 282.406 242.836 282.12 243.49C281.82 244.141 282.078 244.628 282.509 244.824C283.079 245.079 283.62 244.618 283.784 244.248Z" fill="white"/>
<path d="M283.784 244.248C283.967 243.838 283.951 243.091 283.378 242.84C282.966 242.659 282.406 242.836 282.12 243.49C281.82 244.141 282.078 244.628 282.509 244.824C283.079 245.079 283.62 244.618 283.784 244.248Z" fill="white"/>
<path d="M330.096 226.667C328.719 227.55 327.338 228.333 325.954 229.119C324.167 229.999 317.17 233.137 310.063 233.137C303.541 233.137 298.803 230.589 296.734 229.316C289.138 224.412 286.17 216.575 284.992 207.956C284.493 204.331 284.493 200.603 284.493 199.423C284.493 185.61 288.542 177.97 292.788 173.362C295.157 171.01 300.291 166.302 309.174 166.302C314.202 166.302 320.939 167.191 325.377 169.444C325.867 169.737 327.985 171.01 329.172 171.893L329.665 177.967H331.538C331.538 176.6 331.445 175.221 331.445 173.845C331.445 171.01 331.538 168.168 331.538 165.226H329.201C325.455 165.226 324.36 164.836 320.62 164.343C316.175 163.76 313.71 163.76 311.643 163.76C295.353 163.76 287.258 171.699 283.408 177.09C277.087 186.099 276.797 196.195 276.797 199.826C276.797 203.844 277.289 219.511 288.835 229.119C296.634 235.686 304.829 235.883 308.479 235.883C319.336 235.883 326.247 231.662 329.89 229.516L330.096 226.667Z" fill="white"/>
<path d="M330.096 226.667C328.719 227.55 327.338 228.333 325.954 229.119C324.167 229.999 317.17 233.137 310.063 233.137C303.541 233.137 298.803 230.589 296.734 229.316C289.138 224.412 286.17 216.575 284.992 207.956C284.493 204.331 284.493 200.603 284.493 199.423C284.493 185.61 288.542 177.97 292.788 173.362C295.157 171.01 300.291 166.302 309.174 166.302C314.202 166.302 320.939 167.191 325.377 169.444C325.867 169.737 327.985 171.01 329.172 171.893L329.665 177.967H331.538C331.538 176.6 331.445 175.221 331.445 173.845C331.445 171.01 331.538 168.168 331.538 165.226H329.201C325.455 165.226 324.36 164.836 320.62 164.343C316.175 163.76 313.71 163.76 311.643 163.76C295.353 163.76 287.258 171.699 283.408 177.09C277.087 186.099 276.797 196.195 276.797 199.826C276.797 203.844 277.289 219.511 288.835 229.119C296.634 235.686 304.829 235.883 308.479 235.883C319.336 235.883 326.247 231.662 329.89 229.516L330.096 226.667Z" fill="white"/>
<path fill-rule="evenodd" clip-rule="evenodd" d="M97.2926 215.493C91.1544 215.563 85.6826 215.563 79.538 215.563C80.6581 212.473 82.0905 209.512 83.3747 206.557C85.5249 201.788 86.9669 198.685 89.043 193.917C90.3176 197.406 91.3894 199.236 92.59 202.729C94.1833 207.031 95.7862 211.194 97.2926 215.493ZM78.1861 234.001C76.2677 233.933 74.4363 233.798 72.5179 233.663C73.8762 229.638 75.3922 225.298 77.0692 221.341C77.626 220.062 78.2666 218.786 78.8266 217.51C85.5281 217.303 91.4699 217.242 98.0909 217.51C99.05 220.194 100.09 222.817 101.049 225.436C102.005 228.056 102.568 231.059 103.447 233.679C101.532 233.814 100.379 233.946 98.4578 234.011V235.625C104.203 235.49 110.026 235.422 115.775 235.625V234.011C114.259 233.946 112.82 233.875 111.304 233.743C105.555 222.256 101.007 210.118 96.6971 198.163C95.342 194.335 93.9097 190.569 92.8668 186.747H89.7543C89.2747 188.091 88.7983 189.364 88.2383 190.636C86.9604 193.726 85.4476 196.82 84.012 199.91C82.496 203.203 80.906 206.496 79.3062 209.783C77.7097 213.15 76.0263 216.372 74.3622 219.662C72.3634 223.625 70.2937 227.524 68.0567 231.42C67.6544 232.087 67.2552 233.067 66.7789 233.74C65.0214 233.875 63.3509 233.94 61.587 234.004L61.5098 235.625C67.0975 235.422 72.6016 235.422 78.1893 235.625V234.001H78.1861Z" fill="white"/>
<path d="M97.2926 215.493C91.1544 215.563 85.6826 215.563 79.538 215.563C80.6581 212.473 82.0905 209.512 83.3747 206.557C85.5249 201.788 86.9669 198.685 89.043 193.917C90.3176 197.406 91.3894 199.236 92.59 202.729C94.1833 207.031 95.7862 211.194 97.2926 215.493ZM78.1861 234.001C76.2677 233.933 74.4363 233.798 72.5179 233.663C73.8762 229.638 75.3922 225.298 77.0692 221.341C77.626 220.062 78.2666 218.786 78.8266 217.51C85.5281 217.303 91.4699 217.242 98.0909 217.51C99.05 220.194 100.09 222.817 101.049 225.436C102.005 228.056 102.568 231.059 103.447 233.679C101.532 233.814 100.379 233.946 98.4578 234.011V235.625C104.203 235.49 110.026 235.422 115.775 235.625V234.011C114.259 233.946 112.82 233.875 111.304 233.743C105.555 222.256 101.007 210.118 96.6971 198.163C95.342 194.335 93.9097 190.569 92.8668 186.747H89.7543C89.2747 188.091 88.7983 189.364 88.2383 190.636C86.9604 193.726 85.4476 196.82 84.012 199.91C82.496 203.203 80.906 206.496 79.3062 209.783C77.7097 213.15 76.0263 216.372 74.3622 219.662C72.3634 223.625 70.2937 227.524 68.0567 231.42C67.6544 232.087 67.2552 233.067 66.7789 233.74C65.0214 233.875 63.3509 233.94 61.587 234.004L61.5098 235.625C67.0975 235.422 72.6016 235.422 78.1893 235.625V234.001H78.1861Z" fill="white"/>
<path fill-rule="evenodd" clip-rule="evenodd" d="M367.71 215.119C361.569 215.19 356.103 215.19 349.955 215.19C351.075 212.09 352.511 209.142 353.789 206.184C355.942 201.411 357.387 198.308 359.46 193.54C360.735 197.029 361.807 198.859 363.004 202.352C364.604 206.654 366.2 210.814 367.71 215.119ZM348.6 233.624C346.682 233.556 344.854 233.424 342.938 233.286C344.29 229.255 345.81 224.918 347.486 220.964C348.047 219.681 348.684 218.409 349.247 217.126C355.945 216.923 361.89 216.862 368.515 217.126C369.471 219.817 370.51 222.44 371.469 225.056C372.425 227.673 372.985 230.682 373.861 233.299C371.946 233.434 370.787 233.563 368.882 233.634V235.251C374.624 235.113 380.45 235.045 386.192 235.251V233.634C384.682 233.563 383.237 233.498 381.731 233.366C375.982 221.879 371.428 209.741 367.108 197.783C365.759 193.952 364.327 190.192 363.284 186.364H360.175C359.698 187.707 359.219 188.98 358.659 190.259C357.384 193.346 355.865 196.44 354.433 199.53C352.907 202.82 351.317 206.113 349.72 209.406C348.124 212.767 346.447 215.992 344.77 219.285C342.771 223.245 340.705 227.144 338.471 231.04C338.072 231.707 337.676 232.686 337.196 233.36C335.439 233.498 333.768 233.56 332.004 233.624L331.924 235.238C337.512 235.035 343.019 235.035 348.6 235.238V233.624Z" fill="white"/>
<path d="M367.71 215.119C361.569 215.19 356.103 215.19 349.955 215.19C351.075 212.09 352.511 209.142 353.789 206.184C355.942 201.411 357.387 198.308 359.46 193.54C360.735 197.029 361.807 198.859 363.004 202.352C364.604 206.654 366.2 210.814 367.71 215.119ZM348.6 233.624C346.682 233.556 344.854 233.424 342.938 233.286C344.29 229.255 345.81 224.918 347.486 220.964C348.047 219.681 348.684 218.409 349.247 217.126C355.945 216.923 361.89 216.862 368.515 217.126C369.471 219.817 370.51 222.44 371.469 225.056C372.425 227.673 372.985 230.682 373.867 233.299C371.946 233.434 370.787 233.563 368.882 233.634V235.251C374.624 235.113 380.45 235.045 386.192 235.251V233.634C384.682 233.563 383.237 233.498 381.731 233.366C375.982 221.879 371.428 209.741 367.108 197.783C365.759 193.952 364.327 190.192 363.284 186.364H360.175C359.698 187.707 359.219 188.98 358.659 190.259C357.384 193.346 355.865 196.44 354.433 199.53C352.907 202.82 351.317 206.113 349.72 209.406C348.124 212.767 346.447 215.992 344.77 219.285C342.771 223.245 340.705 227.144 338.471 231.04C338.072 231.707 337.676 232.686 337.196 233.36C335.439 233.498 333.768 233.56 332.004 233.624L331.924 235.238C337.512 235.035 343.019 235.035 348.6 235.238V233.624Z" fill="white"/>
<path d="M506.761 226.696C506.69 228.472 506.609 230.727 506.226 231.201C505.988 231.472 505.373 231.613 504.369 231.81C499.348 232.909 492.399 233.247 491.938 233.247C490.313 233.318 488.687 233.247 487.146 233.247C486.914 231.675 486.759 230.176 486.688 228.604C486.608 226.619 486.608 224.708 486.534 222.733C486.534 219.111 486.502 216.053 486.653 212.444C491.365 212.377 493.709 212.29 495.328 212.557C496.57 212.76 498.34 213.308 498.495 213.382C498.962 213.649 499.734 214.265 499.734 214.745C499.815 215.837 499.892 216.865 499.966 217.948L501.749 217.883C501.749 216.034 501.669 214.2 501.669 212.357C501.669 209.902 501.749 207.44 501.897 204.917H500.194C500.194 205.462 500.049 208.465 499.586 209.013C499.351 209.422 498.579 209.486 498.424 209.557C494.484 210.244 490.792 210.015 486.785 209.95C486.856 207.353 486.759 205.12 486.843 202.53C486.914 198.018 486.843 193.453 487.226 189.009C488.388 188.867 489.55 188.867 490.699 188.867C496.799 188.867 500.674 189.828 502.528 190.234C505.003 190.852 504.929 192.447 505.08 195.586H506.703C506.703 193.059 506.703 189.625 506.78 187.095C503.31 187.16 500.362 187.16 496.885 187.234C492.868 187.234 488.777 187.298 484.754 187.298C481.284 187.298 477.876 187.234 474.563 187.095L474.48 188.661C476.179 188.806 478.442 188.867 480.145 189.009C480.454 191.945 480.525 194.88 480.605 197.748C480.682 201.36 480.682 204.917 480.682 208.465C480.682 212.357 480.605 216.243 480.525 220.065C480.454 223.419 480.525 226.828 480.299 230.105C480.299 231.265 480.145 232.358 479.984 233.518C477.985 233.518 475.329 233.585 473.324 233.656V235.29C473.785 235.29 474.325 235.29 474.792 235.229C479.961 235.093 485.063 235.093 490.239 235.093H495.025C497.343 235.022 499.657 235.022 501.974 235.022C504.131 235.093 506.297 235.158 508.386 235.29C508.46 232.429 508.386 229.554 508.541 226.693H506.761V226.696Z" fill="white"/>
<path d="M506.761 226.696C506.69 228.472 506.609 230.727 506.226 231.201C505.988 231.472 505.373 231.613 504.369 231.81C499.348 232.909 492.399 233.247 491.938 233.247C490.313 233.318 488.687 233.247 487.146 233.247C486.914 231.675 486.759 230.176 486.688 228.604C486.608 226.619 486.608 224.708 486.534 222.733C486.534 219.111 486.502 216.053 486.653 212.444C491.365 212.377 493.709 212.29 495.328 212.557C496.57 212.76 498.34 213.308 498.495 213.382C498.962 213.649 499.734 214.265 499.734 214.745C499.815 215.837 499.892 216.865 499.966 217.948L501.749 217.883C501.749 216.034 501.669 214.2 501.669 212.357C501.669 209.902 501.749 207.44 501.897 204.917H500.194C500.194 205.462 500.049 208.465 499.586 209.013C499.351 209.422 498.579 209.486 498.424 209.557C494.484 210.244 490.792 210.015 486.785 209.95C486.856 207.353 486.759 205.12 486.843 202.53C486.914 198.018 486.843 193.453 487.226 189.009C488.388 188.867 489.55 188.867 490.699 188.867C496.799 188.867 500.674 189.828 502.528 190.234C505.003 190.852 504.929 192.447 505.08 195.586H506.703C506.703 193.059 506.703 189.625 506.78 187.095C503.31 187.16 500.362 187.16 496.885 187.234C492.868 187.234 488.777 187.298 484.754 187.298C481.284 187.298 477.876 187.234 474.563 187.095L474.48 188.661C476.179 188.806 478.442 188.867 480.145 189.009C480.454 191.945 480.525 194.88 480.605 197.748C480.682 201.36 480.682 204.917 480.682 208.465C480.682 212.357 480.605 216.243 480.525 220.065C480.454 223.419 480.525 226.828 480.299 230.105C480.299 231.265 480.145 232.358 479.984 233.518C477.985 233.518 475.329 233.585 473.324 233.656V235.29C473.785 235.29 474.325 235.29 474.792 235.229C479.961 235.093 485.063 235.093 490.239 235.093H495.025C497.343 235.022 499.657 235.022 501.974 235.022C504.131 235.093 506.297 235.158 508.386 235.29C508.46 232.429 508.386 229.554 508.541 226.693H506.761V226.696Z" fill="white"/>
<path d="M547.539 226.148C547.468 227.653 547.387 229.677 547.313 231.182C545.472 231.658 543.683 232.003 541.768 232.277C535.166 233.166 532.246 233.102 529.408 233.102C529.182 230.36 529.028 227.966 528.867 225.22C528.796 222.414 528.796 219.669 528.796 216.865V207.53C528.796 203.358 528.796 199.172 529.028 195.057C529.182 193.001 529.333 191.02 529.565 189.022C531.403 188.819 533.325 188.619 535.169 188.41V186.834C532.942 186.905 529.185 186.966 526.952 186.966C523.424 186.966 519.819 186.966 516.359 186.834L516.288 188.41C518.28 188.619 520.202 188.819 522.198 188.958C522.658 194.303 523.096 199.723 523.096 205.072C523.096 210.008 523.015 214.874 523.015 219.81C522.87 227.482 522.941 228.675 522.175 233.06C520.26 233.131 517.891 233.195 515.979 233.195L515.898 235.235C520.884 235.164 525.873 235.235 530.785 235.235C537.075 235.3 543.3 235.164 549.512 235.235C549.512 233.998 549.431 232.764 549.431 231.533C549.357 229.957 549.431 227.65 549.431 226.145H547.539V226.148Z" fill="white"/>
<path d="M547.539 226.148C547.468 227.653 547.387 229.677 547.313 231.182C545.472 231.658 543.683 232.003 541.768 232.277C535.166 233.166 532.246 233.102 529.408 233.102C529.182 230.36 529.028 227.966 528.867 225.22C528.796 222.414 528.796 219.669 528.796 216.865V207.53C528.796 203.358 528.796 199.172 529.028 195.057C529.182 193.001 529.333 191.02 529.565 189.022C531.403 188.819 533.325 188.619 535.169 188.41V186.834C532.942 186.905 529.185 186.966 526.952 186.966C523.424 186.966 519.819 186.966 516.359 186.834L516.288 188.41C518.28 188.619 520.202 188.819 522.198 188.958C522.658 194.303 523.096 199.723 523.096 205.072C523.096 210.008 523.015 214.874 523.015 219.81C522.87 227.482 522.941 228.675 522.178 233.06C520.263 233.131 517.891 233.195 515.979 233.195L515.898 235.235C520.884 235.164 525.873 235.235 530.785 235.235C537.075 235.3 543.3 235.164 549.512 235.235C549.512 233.998 549.431 232.764 549.431 231.533C549.357 229.957 549.431 227.65 549.431 226.145H547.539V226.148Z" fill="white"/>
<path d="M588.02 226.148C587.946 227.653 587.865 229.677 587.791 231.182C585.944 231.658 584.164 232.003 582.239 232.277C575.644 233.166 572.724 233.102 569.885 233.102C569.654 230.36 569.499 227.966 569.345 225.22C569.274 222.414 569.274 219.669 569.274 216.865V207.53C569.274 203.358 569.274 199.172 569.499 195.057C569.654 193.001 569.805 191.02 570.04 189.022C571.881 188.819 573.803 188.619 575.644 188.41V186.834C573.42 186.905 569.654 186.966 567.426 186.966C563.902 186.966 560.29 186.966 556.837 186.834L556.759 188.41C558.755 188.619 560.676 188.819 562.666 188.958C563.129 194.303 563.573 199.723 563.573 205.072C563.573 210.008 563.493 214.874 563.493 219.81C563.345 227.482 563.419 228.675 562.65 233.06C560.731 233.131 558.372 233.195 556.447 233.195L556.373 235.235C561.365 235.164 566.351 235.235 571.26 235.235C577.556 235.3 583.771 235.164 589.993 235.235C589.993 233.998 589.912 232.764 589.912 231.533C589.838 229.957 589.912 227.65 589.912 226.145H588.02V226.148Z" fill="white"/>
<path d="M588.02 226.148C587.946 227.653 587.865 229.677 587.791 231.182C585.944 231.658 584.164 232.003 582.239 232.277C575.644 233.166 572.724 233.102 569.885 233.102C569.654 230.36 569.499 227.966 569.345 225.22C569.274 222.414 569.274 219.669 569.274 216.865V207.53C569.274 203.358 569.274 199.172 569.499 195.057C569.654 193.001 569.805 191.02 570.04 189.022C571.881 188.819 573.803 188.619 575.644 188.41V186.834C573.42 186.905 569.654 186.966 567.426 186.966C563.902 186.966 560.29 186.966 556.837 186.834L556.759 188.41C558.755 188.619 560.676 188.819 562.666 188.958C563.129 194.303 563.573 199.723 563.573 205.072C563.573 210.008 563.493 214.874 563.493 219.81C563.345 227.482 563.419 228.675 562.65 233.06C560.731 233.131 558.372 233.195 556.447 233.195L556.373 235.235C561.365 235.164 566.351 235.235 571.26 235.235C577.556 235.3 583.774 235.164 589.993 235.235C589.993 233.998 589.912 232.764 589.912 231.533C589.838 229.957 589.912 227.65 589.912 226.145H588.02V226.148Z" fill="white"/>
<path fill-rule="evenodd" clip-rule="evenodd" d="M121.174 235.799C123.472 235.799 125.767 235.725 128.069 235.725C129.968 235.725 131.947 235.725 133.846 235.799C135.745 235.867 137.57 236.002 139.466 236.002C141.768 236.002 146.84 236.073 152.064 232.931C153.725 231.903 154.755 230.875 155.235 230.331C156.976 228.143 157.852 225.137 157.852 222.543C157.852 219.665 156.738 217.481 156.188 216.459C154.836 214.407 152.621 212.283 146.84 211.326C145.488 211.123 144.149 210.988 142.801 210.849L142.717 210.582C143.351 210.508 143.535 210.376 144.172 210.24C146.386 209.686 147.973 208.935 148.762 208.526C150.902 207.36 154.942 204.701 154.942 198.821C154.942 195.947 154.066 193.965 153.519 192.869C153.278 192.396 152.483 191.026 151.06 189.995C147.497 187.201 142.64 187.327 141.533 187.327C139.55 187.327 137.574 187.462 135.594 187.543C133.138 187.669 130.602 187.746 128.149 187.746C125.77 187.746 123.475 187.672 121.177 187.543L121.02 189.112C122.919 189.177 125.262 189.318 127.161 189.521C127.48 194.925 127.48 200.387 127.48 205.787C127.48 210.92 127.48 216.04 127.399 221.102C127.399 225.411 127.399 229.648 126.926 233.888C125.104 234.024 122.919 234.091 121.177 234.159V235.799H121.174ZM133.547 189.521C135.687 189.177 137.39 189.299 139.608 189.299C142.46 189.299 140.857 189.322 142.041 189.724C143.47 190.346 144.578 191.3 144.973 191.713C147.825 194.509 148.063 197.861 148.063 199.091C147.98 203.538 145.688 207.84 140.618 209.554C137.767 210.437 137.384 210.166 136.589 210.166C135.481 210.166 134.416 210.372 133.228 210.302C133.154 208.323 133.077 206.409 133.077 204.424C133.077 203.19 133.157 201.895 133.157 200.661C133.157 198.408 133.157 196.153 133.231 193.897C133.312 192.46 133.389 191.026 133.547 189.521ZM133.151 212.009C134.812 211.868 136.56 211.806 138.301 211.806C145.109 211.806 146.47 213.582 148.372 215.699C149.956 217.474 150.59 220.007 150.59 222.266C150.59 223.355 150.429 231.146 143.383 233.543C141.797 234.088 142.373 234.004 138.732 234.004C136.199 234.004 134.442 233.766 133.573 233.634C133.334 230.624 133.151 227.937 133.151 224.924C133.08 220.629 133.08 216.311 133.151 212.009Z" fill="white"/>
<path d="M121.174 235.799C123.472 235.799 125.767 235.725 128.069 235.725C129.968 235.725 131.947 235.725 133.846 235.799C135.745 235.867 137.57 236.002 139.466 236.002C141.768 236.002 146.84 236.073 152.064 232.931C153.725 231.903 154.755 230.875 155.235 230.331C156.976 228.143 157.852 225.137 157.852 222.543C157.852 219.665 156.738 217.481 156.188 216.459C154.836 214.407 152.621 212.283 146.84 211.326C145.488 211.123 144.149 210.988 142.801 210.849L142.717 210.582C143.351 210.508 143.535 210.376 144.172 210.24C146.386 209.686 147.973 208.935 148.762 208.526C150.902 207.36 154.942 204.701 154.942 198.821C154.942 195.947 154.066 193.965 153.519 192.869C153.278 192.396 152.483 191.026 151.06 189.995C147.497 187.201 142.64 187.327 141.533 187.327C139.55 187.327 137.574 187.462 135.594 187.543C133.138 187.669 130.602 187.746 128.149 187.746C125.77 187.746 123.475 187.672 121.177 187.543L121.02 189.112C122.919 189.177 125.262 189.318 127.161 189.521C127.48 194.925 127.48 200.387 127.48 205.787C127.48 210.92 127.48 216.04 127.399 221.102C127.399 225.411 127.399 229.648 126.926 233.888C125.104 234.024 122.919 234.091 121.177 234.159V235.799H121.174ZM133.547 189.521C135.687 189.177 137.39 189.299 139.611 189.299C142.46 189.299 140.857 189.322 142.041 189.724C143.47 190.346 144.578 191.3 144.973 191.713C147.825 194.509 148.063 197.861 148.063 199.091C147.98 203.538 145.688 207.84 140.618 209.554C137.767 210.437 137.384 210.163 136.589 210.163C135.481 210.163 134.416 210.372 133.228 210.302C133.154 208.323 133.077 206.409 133.077 204.424C133.077 203.19 133.157 201.895 133.157 200.661C133.157 198.408 133.157 196.153 133.231 193.897C133.312 192.46 133.389 191.026 133.547 189.521ZM133.151 212.009C134.812 211.868 136.56 211.806 138.301 211.806C145.109 211.806 146.47 213.582 148.372 215.699C149.956 217.474 150.59 220.007 150.59 222.266C150.59 223.355 150.429 231.146 143.383 233.543C141.797 234.088 142.373 234.004 138.732 234.004C136.199 234.004 134.442 233.766 133.573 233.634C133.334 230.624 133.151 227.937 133.151 224.924C133.08 220.629 133.08 216.311 133.151 212.009Z" fill="white"/>
<path fill-rule="evenodd" clip-rule="evenodd" d="M254.366 233.737C252.985 233.676 251.604 233.601 250.303 233.54C249.402 232.783 248.517 232.042 247.706 231.288C245.43 229.106 243.399 226.857 241.204 224.608C239.418 222.765 238.429 220.97 236.646 219.124C235.021 217.352 233.395 215.647 231.773 213.875C230.956 212.921 230.231 212.032 229.417 211.149C229.987 211.081 231.052 210.769 232.922 210.285C234.87 209.747 236.015 209.557 237.718 208.603C239.994 207.311 244.461 204.447 244.461 198.312C244.545 195.521 243.489 193.536 242.836 192.586C242.517 191.974 241.529 190.443 239.981 189.418C236.247 186.963 230.807 187.05 229.996 187.05C227.563 187.05 225.207 187.192 222.767 187.256C218.299 187.327 213.999 187.327 209.528 187.256L209.451 188.825C211.398 188.967 213.349 189.167 215.296 189.302C215.538 194.071 215.538 198.708 215.538 203.338C215.538 208.523 215.538 213.627 215.457 218.747V225.153C215.374 227.943 215.213 230.74 214.807 233.537C212.937 233.598 210.99 233.672 209.123 233.734L209.039 235.374C211.231 235.306 213.426 235.306 215.699 235.374C219.358 235.374 223.926 235.306 227.663 235.374L227.743 233.734C225.873 233.672 224.084 233.598 222.217 233.598C221.898 230.672 221.653 227.669 221.489 224.737C221.405 222.014 221.405 219.285 221.405 216.63C221.405 214.726 221.322 212.815 221.245 210.904L221.389 211.039C225.451 214.855 228.715 218.621 232.536 222.723C236.35 226.735 239.929 230.827 243.254 235.116C246.669 234.981 250.957 235.303 254.449 235.37L254.366 233.737ZM222.497 189.422C224.689 189.215 224.412 189.151 226.52 189.151C228.957 189.151 230.173 189.106 231.316 189.37C234.075 190.124 237.892 192.441 237.892 198.163C237.892 200.825 237 204.031 234.808 206.074C233.508 207.302 231.802 207.911 231.149 208.185C226.279 210.099 223.063 209.683 221.518 209.615C221.599 206.757 221.599 203.954 221.686 201.092C221.85 197.074 222.175 193.375 222.497 189.422Z" fill="white"/>
<path d="M254.366 233.737C252.985 233.676 251.604 233.601 250.303 233.54C249.402 232.783 248.517 232.042 247.706 231.288C245.43 229.106 243.399 226.857 241.204 224.608C239.418 222.765 238.429 220.97 236.646 219.124C235.021 217.352 233.395 215.647 231.773 213.875C230.956 212.921 230.231 212.032 229.417 211.149C229.987 211.081 231.052 210.769 232.922 210.285C234.87 209.747 236.015 209.557 237.718 208.603C239.994 207.311 244.461 204.447 244.461 198.312C244.545 195.521 243.489 193.536 242.836 192.586C242.517 191.974 241.529 190.443 239.984 189.418C236.247 186.963 230.807 187.05 230 187.05C227.563 187.05 225.207 187.192 222.767 187.256C218.299 187.327 213.999 187.327 209.528 187.256L209.451 188.825C211.398 188.967 213.349 189.167 215.296 189.302C215.538 194.071 215.538 198.708 215.538 203.338C215.538 208.523 215.538 213.627 215.457 218.747V225.153C215.374 227.943 215.213 230.74 214.807 233.537C212.937 233.598 210.99 233.672 209.123 233.734L209.039 235.374C211.231 235.306 213.426 235.306 215.699 235.374C219.358 235.374 223.926 235.306 227.663 235.374L227.743 233.734C225.873 233.672 224.084 233.598 222.217 233.598C221.898 230.672 221.653 227.669 221.489 224.737C221.405 222.014 221.405 219.285 221.405 216.63C221.405 214.726 221.322 212.815 221.245 210.904L221.389 211.039C225.451 214.851 228.715 218.621 232.536 222.723C236.35 226.735 239.929 230.827 243.254 235.116C246.669 234.981 250.957 235.303 254.449 235.37L254.366 233.737ZM222.497 189.422C224.689 189.215 224.412 189.151 226.52 189.151C228.957 189.151 230.173 189.106 231.316 189.37C234.075 190.124 237.892 192.441 237.892 198.163C237.892 200.825 237 204.031 234.808 206.074C233.508 207.302 231.802 207.911 231.149 208.185C226.279 210.099 223.063 209.683 221.518 209.615C221.599 206.757 221.599 203.954 221.686 201.092C221.85 197.074 222.175 193.375 222.497 189.422Z" fill="white"/>
<path d="M49.0925 233.46C46.6785 233.363 44.2612 233.26 41.8407 233.26C41.5542 228.481 41.4576 223.6 41.3579 218.815C41.3579 213.247 41.3579 207.685 41.2581 202.124C42.0306 202.02 42.8063 202.02 43.582 202.02C49.0925 202.02 55.089 203.093 56.5375 203.493C56.8272 203.583 58.0857 203.78 58.6683 204.273C59.7337 205.249 59.6371 207.785 59.6371 210.711L61.9579 210.811C61.8645 207.982 61.7615 205.343 61.7615 202.617C61.7615 199.098 61.8645 195.586 61.9579 192.16L59.827 192.073C59.6371 194.709 59.6371 197.242 58.958 198.025C58.3754 198.608 56.9302 198.805 56.7338 198.805C50.8371 200.171 42.2269 199.974 41.2581 199.881C41.2581 194.413 41.2581 188.851 41.3579 183.39C41.5542 178.698 41.7409 174.016 42.0306 169.328C43.8685 169.231 45.7064 169.231 47.451 169.231C54.4131 169.231 60.1167 170.207 62.534 170.697C62.7304 170.791 64.0822 171.081 65.1476 171.674C66.3064 172.26 66.403 173.233 66.4995 173.72C66.7892 174.702 66.889 175.286 66.889 177.142H69.0134C68.92 173.823 69.0134 170.407 69.1035 166.992C63.593 167.188 58.2788 167.088 52.7619 167.088C44.4511 167.088 36.2272 167.285 27.8134 166.892L27.7168 168.941C30.0375 169.138 32.4548 169.431 34.7787 169.721C35.1618 174.706 35.2615 179.681 35.2615 184.556C35.2615 191.887 35.165 199.008 35.165 206.229C35.0684 215.312 35.165 224.296 34.3925 233.176C32.2649 233.373 30.0375 233.373 27.9131 233.469V235.809C31.0064 235.615 34.1028 235.519 37.2926 235.519C41.1615 235.519 45.127 235.615 48.996 235.809L49.0925 233.46Z" fill="white"/>
<path d="M49.0925 233.46C46.6785 233.363 44.2612 233.26 41.8407 233.26C41.5542 228.481 41.4576 223.6 41.3579 218.815C41.3579 213.247 41.3579 207.685 41.2581 202.124C42.0306 202.02 42.8063 202.02 43.582 202.02C49.0925 202.02 55.089 203.093 56.5375 203.493C56.8272 203.583 58.0857 203.78 58.6683 204.273C59.7337 205.249 59.6371 207.785 59.6371 210.711L61.9579 210.811C61.8645 207.982 61.7615 205.343 61.7615 202.617C61.7615 199.098 61.8645 195.586 61.9579 192.16L59.827 192.073C59.6371 194.709 59.6371 197.242 58.958 198.025C58.3754 198.608 56.9302 198.805 56.7338 198.805C50.8371 200.171 42.2269 199.974 41.2581 199.881C41.2581 194.413 41.2581 188.851 41.3579 183.39C41.5542 178.698 41.7409 174.016 42.0306 169.328C43.8685 169.231 45.7064 169.231 47.451 169.231C54.4131 169.231 60.1167 170.207 62.534 170.697C62.7304 170.791 64.0822 171.081 65.1476 171.674C66.3064 172.26 66.403 173.233 66.4995 173.72C66.7892 174.702 66.889 175.286 66.889 177.142H69.0134C68.92 173.823 69.0134 170.407 69.1035 166.992C63.593 167.188 58.2788 167.088 52.7619 167.088C44.4511 167.088 36.2272 167.285 27.8134 166.892L27.7168 168.941C30.0375 169.138 32.4548 169.431 34.7787 169.721C35.1618 174.706 35.2615 179.681 35.2615 184.556C35.2615 191.887 35.165 199.008 35.165 206.229C35.0684 215.312 35.165 224.296 34.3925 233.176C32.2649 233.373 30.0375 233.373 27.9131 233.469V235.809C31.0064 235.615 34.1028 235.519 37.2926 235.519C41.1615 235.519 45.127 235.615 48.996 235.809L49.0925 233.46Z" fill="white"/>
<path d="M198.953 226.899C198.879 228.671 198.796 230.927 198.413 231.407C198.181 231.671 197.566 231.813 196.555 232.016C191.54 233.112 184.588 233.453 184.124 233.453C182.505 233.521 180.88 233.453 179.335 233.453C179.106 231.881 178.949 230.382 178.875 228.81C178.794 226.822 178.794 224.914 178.72 222.939C178.72 219.317 178.691 216.266 178.839 212.651C183.552 212.58 185.898 212.493 187.517 212.763C188.753 212.97 190.533 213.517 190.688 213.582C191.148 213.859 191.92 214.468 191.92 214.948C191.998 216.04 192.078 217.068 192.152 218.154L193.932 218.086C193.932 216.247 193.848 214.403 193.848 212.56C193.848 210.105 193.932 207.643 194.083 205.12H192.384C192.384 205.668 192.229 208.671 191.769 209.216C191.537 209.625 190.758 209.689 190.607 209.763C186.671 210.447 182.985 210.224 178.965 210.153C179.049 207.559 178.949 205.33 179.026 202.736C179.106 198.225 179.026 193.656 179.412 189.212C180.568 189.067 181.73 189.067 182.888 189.067C188.988 189.067 192.863 190.031 194.717 190.443C197.186 191.062 197.115 192.657 197.267 195.795H198.889C198.889 193.269 198.889 189.828 198.963 187.301C195.493 187.369 192.545 187.369 189.069 187.44C185.048 187.44 180.957 187.504 176.937 187.504C173.464 187.504 170.065 187.44 166.746 187.301L166.669 188.874C168.369 189.009 170.631 189.067 172.328 189.212C172.64 192.144 172.714 195.083 172.795 197.951C172.872 201.569 172.872 205.12 172.872 208.671C172.872 212.564 172.794 216.456 172.717 220.281C172.643 223.625 172.717 227.038 172.485 230.312C172.485 231.475 172.331 232.567 172.18 233.724C170.171 233.724 167.519 233.795 165.514 233.866V235.493C165.974 235.493 166.515 235.493 166.978 235.435C172.151 235.3 177.246 235.3 182.425 235.3H187.214C189.535 235.229 191.849 235.229 194.161 235.229C196.324 235.3 198.487 235.361 200.576 235.493C200.653 232.638 200.576 229.757 200.73 226.899H198.953Z" fill="white"/>
<path d="M198.953 226.899C198.879 228.671 198.796 230.927 198.413 231.407C198.181 231.671 197.566 231.813 196.555 232.016C191.54 233.112 184.588 233.453 184.124 233.453C182.505 233.521 180.88 233.453 179.335 233.453C179.106 231.881 178.949 230.382 178.875 228.81C178.794 226.822 178.794 224.914 178.72 222.939C178.72 219.317 178.691 216.266 178.839 212.651C183.552 212.58 185.898 212.493 187.517 212.763C188.753 212.97 190.533 213.517 190.688 213.582C191.148 213.859 191.92 214.468 191.92 214.948C191.998 216.04 192.078 217.068 192.152 218.154L193.932 218.086C193.932 216.247 193.848 214.403 193.848 212.56C193.848 210.105 193.932 207.643 194.083 205.12H192.384C192.384 205.668 192.229 208.671 191.769 209.216C191.537 209.625 190.758 209.689 190.607 209.763C186.671 210.447 182.985 210.224 178.965 210.153C179.049 207.559 178.949 205.33 179.026 202.736C179.106 198.225 179.026 193.656 179.412 189.212C180.568 189.067 181.733 189.067 182.888 189.067C188.988 189.067 192.863 190.031 194.717 190.443C197.186 191.062 197.115 192.657 197.267 195.795H198.889C198.889 193.269 198.889 189.828 198.963 187.301C195.493 187.369 192.545 187.369 189.069 187.44C185.048 187.44 180.957 187.504 176.937 187.504C173.464 187.504 170.065 187.44 166.746 187.301L166.669 188.874C168.369 189.009 170.631 189.067 172.328 189.212C172.64 192.144 172.714 195.083 172.795 197.951C172.872 201.569 172.872 205.12 172.872 208.671C172.872 212.564 172.794 216.456 172.717 220.281C172.643 223.625 172.717 227.038 172.485 230.312C172.485 231.475 172.331 232.567 172.18 233.724C170.171 233.724 167.519 233.795 165.514 233.866V235.493C165.974 235.493 166.515 235.493 166.978 235.435C172.151 235.3 177.246 235.3 182.425 235.3H187.214C189.535 235.229 191.849 235.229 194.161 235.229C196.324 235.3 198.487 235.361 200.576 235.493C200.653 232.638 200.576 229.757 200.73 226.899H198.953Z" fill="white"/>
<path fill-rule="evenodd" clip-rule="evenodd" d="M249.412 212.022C256.706 211.903 264.003 212.022 271.11 212.022L271.171 209.902H262.844C258.347 209.944 253.851 209.986 249.412 209.902V212.022Z" fill="white"/>
<path d="M249.412 212.022C256.706 211.903 264.003 212.022 271.11 212.022L271.171 209.902H262.844C258.351 209.944 253.851 209.983 249.412 209.902V212.022Z" fill="white"/>
<path d="M417.343 194.79C417.42 192.27 417.343 189.737 417.504 187.143C413.139 186.254 411.037 186.122 408.855 186.122C406.434 186.122 397.071 186.067 392.71 193.166C391.094 195.966 390.93 198.421 390.93 199.588C390.93 201.36 391.065 204.218 394.139 207.356C394.869 208.104 396.147 209.406 398.5 210.43C400.917 211.52 402.491 212.203 404.996 212.96C409.116 214.255 413.181 215.302 415.447 218.918C416.664 220.967 416.738 223.145 416.738 223.896C416.738 227.927 415.125 229.841 413.586 231.133C411.002 233.389 408.301 234.417 404.667 234.417C400.547 234.417 397.068 233.186 395.774 232.57C394.728 232.093 394 231.549 393.678 231.269C393.434 229.628 393.192 228.066 392.948 226.426L391.091 226.487C391.171 227.924 391.171 229.358 391.171 230.866C391.171 232.296 391.091 233.724 391.01 235.164C393.109 235.712 396.099 236.257 401.268 236.257C409.354 236.257 413.796 234.417 416.709 232.503C420.825 229.764 422.605 226.216 422.605 221.853C422.605 215.837 418.073 212.841 415.981 211.613C413.239 210.108 410.242 209.283 409.273 208.939C404.986 207.653 400.612 206.66 398.191 202.9C396.9 200.854 396.82 198.74 396.82 197.989C396.82 192.528 400.142 188.635 406.273 188.294C409.74 188.107 413.165 189.267 414.137 189.612C414.62 189.815 414.594 190.089 415.077 190.288C415.238 191.79 415.321 193.295 415.482 194.793H417.343V194.79Z" fill="white"/>
<path d="M417.343 194.79C417.42 192.27 417.343 189.737 417.504 187.143C413.139 186.254 411.037 186.122 408.855 186.122C406.434 186.122 397.071 186.067 392.71 193.166C391.094 195.966 390.93 198.421 390.93 199.588C390.93 201.36 391.065 204.218 394.139 207.356C394.869 208.104 396.16 209.406 398.5 210.43C400.917 211.52 402.491 212.203 404.996 212.96C409.116 214.255 413.181 215.302 415.447 218.918C416.664 220.964 416.738 223.145 416.738 223.896C416.738 227.927 415.125 229.841 413.586 231.133C411.002 233.389 408.301 234.417 404.667 234.417C400.547 234.417 397.068 233.186 395.774 232.57C394.728 232.093 394 231.549 393.678 231.269C393.434 229.628 393.192 228.066 392.948 226.426L391.091 226.487C391.171 227.924 391.171 229.358 391.171 230.866C391.171 232.296 391.091 233.724 391.013 235.164C393.106 235.712 396.096 236.257 401.265 236.257C409.351 236.257 413.792 234.417 416.705 232.503C420.822 229.764 422.602 226.216 422.602 221.853C422.602 215.837 418.08 212.841 415.978 211.613C413.236 210.108 410.239 209.283 409.27 208.939C404.983 207.653 400.608 206.66 398.188 202.9C396.897 200.854 396.817 198.74 396.817 197.989C396.817 192.528 400.139 188.635 406.27 188.294C409.737 188.107 413.162 189.267 414.134 189.612C414.616 189.815 414.591 190.089 415.074 190.288C415.234 191.79 415.318 193.295 415.479 194.793H417.343V194.79Z" fill="white"/>
<path d="M467.117 195.721C467.188 193.195 467.188 189.708 467.269 187.185C460.535 187.317 453.885 187.656 447.158 187.656C440.582 187.656 434 187.317 427.511 187.185C427.353 189.705 427.276 193.214 427.195 195.795H429.156C429.31 194.432 429.461 192.173 429.622 190.817C435.12 189.521 437.074 189.718 443.827 189.718C443.904 191.896 444.293 193.314 444.293 195.486C444.293 199.091 444.139 202.771 444.139 206.37C444.065 209.841 444.065 213.382 444.065 216.92C443.904 222.433 443.753 227.943 443.363 233.453C441.425 233.453 439.433 233.527 437.492 233.592V235.225C439.433 235.155 441.899 235.09 443.833 235.09C447.618 235.019 452.076 235.019 455.865 235.225L455.945 233.592C454.091 233.527 452.025 233.453 450.171 233.453C450.01 230.395 449.855 227.328 449.855 224.27C449.855 219.163 449.939 213.991 450.01 208.958C450.094 204.463 450.094 200.042 450.242 195.553C450.325 193.311 450.612 191.957 450.85 189.715C458.675 189.715 460.422 189.795 464.829 190.607C464.913 192.038 465.067 194.213 465.141 195.715H467.117V195.721Z" fill="white"/>
<path d="M467.117 195.721C467.188 193.195 467.188 189.708 467.269 187.185C460.535 187.317 453.885 187.656 447.158 187.656C440.582 187.656 434 187.317 427.511 187.185C427.353 189.705 427.276 193.214 427.195 195.795H429.156C429.31 194.432 429.461 192.173 429.622 190.817C435.12 189.521 437.074 189.718 443.827 189.718C443.904 191.896 444.293 193.314 444.293 195.486C444.293 199.091 444.139 202.771 444.139 206.37C444.065 209.841 444.065 213.382 444.065 216.92C443.904 222.433 443.753 227.943 443.363 233.453C441.425 233.453 439.433 233.527 437.492 233.592V235.225C439.433 235.155 441.899 235.09 443.833 235.09C447.618 235.019 452.076 235.019 455.865 235.225L455.945 233.592C454.091 233.527 452.025 233.453 450.171 233.453C450.01 230.395 449.855 227.328 449.855 224.27C449.855 219.163 449.939 213.991 450.01 208.958C450.094 204.463 450.094 200.042 450.242 195.553C450.325 193.311 450.612 191.957 450.85 189.715C458.675 189.715 460.422 189.795 464.829 190.607C464.913 192.038 465.067 194.213 465.141 195.715H467.117V195.721Z" fill="white"/>
<path d="M291.65 96.2671C291.65 95.5775 292.156 95.3036 292.854 95.3036C293.553 95.3036 294.29 95.5228 294.29 96.2123C294.29 96.9051 293.553 97.8073 292.854 97.8073C292.156 97.8073 291.65 96.9599 291.65 96.2671Z" fill="white"/>
<path fill-rule="evenodd" clip-rule="evenodd" d="M281.603 100.598C281.603 100.598 279.424 100.511 279.276 102.422C279.153 104.078 280.914 104.387 280.914 104.387C280.914 104.387 281.348 104.416 281.316 104.816C281.284 105.215 279.623 107.58 281.947 108.573C284.149 109.523 286.711 107.468 287.31 107.01C287.918 106.559 289.263 104.674 290.213 104.619C291.153 104.564 291.938 104.532 291.961 104.99C291.996 105.647 290.355 105.76 289.811 106.926C289.495 107.606 289.637 109.581 289.637 109.581C289.637 109.581 289.138 110.032 289.125 110.268C289.099 110.777 289.637 110.438 289.669 110.919C289.701 111.405 287.921 113.084 287.747 113.506C287.596 113.889 287.464 115.194 287.464 115.194C287.377 114.85 288.063 118.152 289.125 118.21C290.187 118.268 294.03 116.641 294.349 116.129C294.664 115.62 294.925 114.447 294.581 113.313C294.233 112.172 293.921 111.824 293.947 111.511C293.976 111.196 294.581 110.058 295.785 109.688C296.2 109.565 296.013 108.979 295.756 108.914C294.52 108.724 293.29 108.747 293.226 108.267C293.168 107.777 295.179 107.922 295.147 107.381C295.125 106.836 293.602 106.33 293.602 105.415C293.602 105.044 294.838 104.278 294.838 104.158C294.838 104.1 293.834 103.759 293.776 103.391C293.602 102.28 293.573 99.035 293.345 98.8062C293.116 98.5775 292.112 98.2359 292.025 98.8288C291.938 99.4281 291.797 102.737 291.159 103.195C290.535 103.649 288.15 104.133 287.345 104.674C286.544 105.215 284.905 106.266 284.072 106.24C283.238 106.214 282.462 106.072 282.462 105.096C282.462 104.133 288.063 103.817 288.063 103.388C288.063 102.966 281.854 102.773 281.548 101.819C281.316 101.113 281.603 100.598 281.603 100.598ZM291.133 111.544C291.133 111.544 291.333 112.684 291.362 113.251C291.391 113.822 291.133 114.991 292.138 114.788C293.139 114.595 292.666 113.116 292.572 112.823C292.221 111.801 291.133 111.544 291.133 111.544Z" fill="white"/>
<path d="M263.464 116.931H287.428C287.428 116.931 288.239 117.556 288.094 118.41C287.605 118.439 263.319 118.41 263.319 118.41C263.319 118.41 262.602 118.185 262.634 117.669C262.663 117.105 263.464 116.931 263.464 116.931Z" fill="white"/>
<path fill-rule="evenodd" clip-rule="evenodd" d="M287.804 129.955V126.624C287.804 126.624 287.83 125.883 287.546 125.367C287.26 124.855 285.712 122.606 285.56 122.49C285.422 122.38 284.82 122.206 284.444 122.519C284.073 122.831 284.273 123.314 284.418 123.459C284.559 123.601 285.39 125.051 285.506 125.138C285.622 125.228 285.448 125.512 285.303 125.512C285.161 125.512 281.656 125.283 279.738 126.111C277.81 126.936 277.729 127.052 277.298 127.052C276.87 127.052 276.175 126.521 274.626 126.424C273.709 126.366 272.734 126.827 271.845 126.878C270.951 126.936 268.804 127.078 267.938 127.51C267.082 127.932 265.614 128.818 264.639 129.959C263.66 131.096 263.203 132.897 262.459 133.89C261.713 134.892 260.705 136.255 259.785 136.683C259.711 136.712 261.568 136.883 261.481 137.512C261.375 138.304 261.539 138.791 260.705 140.56C259.872 142.326 259.299 143.183 258.726 143.695C258.15 144.211 259.785 143.869 260.016 143.753C260.242 143.637 260.731 143.125 261.108 143.295C261.481 143.466 261.108 145.064 260.905 145.432C260.702 145.809 260.129 146.772 260.129 146.772C260.129 146.772 261.075 147.262 262.083 147.175C263.399 147.059 264.04 145.706 264.291 144.868C264.603 143.811 264.864 139.993 264.864 139.993C264.864 139.993 267.078 140.592 268.195 140.563C269.402 140.537 270.403 139.851 270.809 140.447C271.208 141.043 270.178 143.382 270.033 143.917C269.892 144.465 267.304 151.022 267.133 151.444C266.959 151.873 266.988 152.756 266.988 152.756H271.665C271.665 152.756 273.361 147.739 274.91 145.693C276.461 143.634 278.811 141.613 279.303 141.675C279.789 141.726 278.724 142.554 278.724 142.554C278.724 142.554 276.348 145.661 275.598 147.484C274.852 149.311 274.279 150.678 274.279 152.872C274.279 152.923 276.542 152.859 276.542 152.859C276.542 152.859 277.121 148.996 277.778 147.201C278.444 145.406 279.677 142.67 280.221 142.181C280.507 141.932 280.134 141.269 279.992 141.33C279.847 141.388 280.391 140.934 280.536 140.872C280.681 140.818 282.57 140.331 282.458 139.219C282.345 138.108 280.736 138.021 280.478 137.992C280.221 137.969 277.607 138.195 277.407 136.484C277.205 134.773 280.221 132.949 280.221 132.949C280.221 132.949 283.124 130.719 283.719 130.842C284.006 130.893 283.285 131.641 283.285 131.641C283.285 131.641 279.989 135.03 279.873 135.372C279.757 135.71 279.583 136.171 279.702 136.31C279.815 136.455 280.707 135.965 281.28 136.223C281.856 136.48 282.023 136.596 282.281 137.054C282.544 137.508 283.285 139.271 284.691 139.213C286.101 139.155 286.359 137.818 286.504 137.582C286.645 137.36 289.285 133.11 289.285 133.11C289.285 133.11 289.491 132.627 288.947 132.514C288.396 132.398 285.464 133.145 285.094 132.855C284.72 132.572 284.923 130.49 284.891 130.091C284.862 129.698 284.55 129.556 284.035 129.517C283.623 129.501 282.538 129.295 278.981 131.032C275.425 132.775 275.051 133.255 274.163 133.287C273.271 133.313 272.663 133.487 272.525 133.197C272.38 132.913 272.354 130.919 272.872 130.091C273.381 129.269 274.398 127.639 275.566 128.183C276.055 128.412 275.711 128.87 275.711 128.87C275.711 128.87 274.53 131.431 275.248 131.431C275.969 131.431 278.585 131.293 278.585 131.293C278.585 131.293 279.129 129.491 279.731 128.921C280.333 128.351 280.906 127.349 283.121 127.529C285.329 127.697 285.812 128.296 285.847 128.528C285.876 128.75 285.554 132.056 285.876 132.114C286.188 132.172 289.751 131.773 289.89 131.634C290.038 131.489 290.353 131.061 290.324 130.777C290.298 130.49 290.298 130.181 289.671 130.062C289.037 129.955 287.804 129.955 287.804 129.955ZM272.302 135.485C272.302 135.485 271.617 139.02 271.784 139.078C271.964 139.136 273.857 138.878 273.767 137.988C273.622 136.535 272.302 135.485 272.302 135.485ZM273.368 140.93C273.081 141.243 269.463 150.839 269.319 151.103C269.177 151.357 269.377 151.734 269.921 150.649C270.471 149.569 276.12 141.504 276.355 141.214C276.58 140.93 276.896 140.615 276.783 140.418C276.667 140.218 276.007 140.102 275.46 140.273C274.916 140.444 273.654 140.611 273.368 140.93ZM268.977 129.868C268.685 130.013 266.567 130.951 266.077 132.578C265.585 134.202 264.584 137.56 264.928 138.191C265.276 138.817 265.907 138.73 266.361 138.333C266.824 137.927 267.371 137.109 267.397 136.532C267.426 135.965 267.371 134.969 267.684 133.941C268.002 132.917 268.376 131.492 268.659 130.948C268.942 130.413 269.145 129.984 268.977 129.868Z" fill="white"/>
<path d="M290.756 133.403C290.756 133.403 290.582 132.862 290.324 132.833C290.067 132.804 289.719 133.516 289.719 133.516L287.682 136.741C287.682 136.741 287.485 137.341 287.74 137.45C288 137.563 289.574 137.563 290.035 137.479C290.495 137.392 291.473 137.305 291.583 136.993C291.705 136.68 290.756 133.403 290.756 133.403Z" fill="white"/>
<path d="M290.705 138.456C290.705 137.947 291.088 137.531 291.571 137.531C292.044 137.531 292.43 137.947 292.43 138.456C292.43 138.968 292.044 139.384 291.571 139.384C291.088 139.384 290.705 138.968 290.705 138.456Z" fill="white"/>
<path d="M305.845 125.912C305.845 125.912 306.395 125.396 307.061 125.222C307.721 125.051 309.504 124.993 309.504 124.993L310.103 123.685C310.103 123.685 310.277 123.34 310.596 123.34C310.914 123.34 311.049 124.426 311.017 124.829C310.988 125.222 311.648 125.367 311.915 125.306C312.17 125.251 312.424 125.19 312.485 124.71C312.54 124.223 312.717 123.54 312.717 123.54C312.717 123.54 313.087 123.424 313.18 123.682C313.261 123.94 313.18 125.219 313.718 125.19C314.265 125.167 315.594 125.18 315.594 125.18L315.643 121.201C315.643 121.201 315.623 120.888 315.392 120.688C315.157 120.489 313.982 120.601 313.982 120.601L313.116 119.432C313.116 119.432 312.636 119.261 312.488 119.261C312.347 119.261 309.762 119.238 309.762 119.238C309.762 119.238 309.218 119.351 309.128 119.522C309.047 119.693 309.07 120.121 309.192 120.208C309.302 120.289 309.945 121.027 310.374 121.429C310.551 121.752 310.374 122.171 310.374 122.171C310.374 122.171 309.25 122.941 309.07 122.908C308.899 122.886 308.755 122.683 308.7 122.203C308.642 121.716 308.326 119.921 308.326 119.921C308.326 119.921 308.326 119.638 308.185 119.522C308.037 119.409 303.273 119.238 303.273 119.238C303.273 119.238 302.156 119.432 301.58 119.805C301.007 120.17 300.814 120.489 300.836 120.688C300.862 120.888 301.725 121.426 301.841 121.491C301.953 121.542 306.749 123.849 307.239 123.94C307.725 124.023 308.124 124.423 307.924 124.397C307.721 124.368 307.174 124.336 307.061 124.223C306.946 124.107 301.693 121.858 301.551 121.716C301.406 121.571 300.379 120.917 300.141 120.83C299.916 120.743 299.513 120.688 298.998 121.172C298.477 121.658 298.12 121.9 298.191 122.061C298.31 122.316 298.545 122.973 300.988 124.851C303.37 126.688 304.28 126.968 304.28 126.968C304.28 126.968 304.709 126.988 304.905 126.872L305.845 125.912Z" fill="white"/>
<path fill-rule="evenodd" clip-rule="evenodd" d="M293.257 129.127C293.257 129.127 294.12 129.443 294.374 129.926C294.635 130.413 294.954 134.083 295.556 134.57C296.157 135.056 296.73 134.682 296.93 134.969C297.136 135.253 298.514 135.088 298.514 135.088C298.514 135.088 298.572 134.257 298.227 133.974C297.88 133.69 297.709 133.516 297.506 133.577C297.307 133.635 296.727 134.202 296.499 134.151C296.27 134.086 296.125 133.922 296.009 133.294C295.894 132.665 295.411 128.876 295.324 128.705C295.237 128.534 295.034 128.335 294.831 128.36C294.632 128.393 294.284 128.734 294.085 128.818C293.888 128.902 293.257 129.127 293.257 129.127ZM306.631 125.908C305.843 126.156 305.254 127.304 304.938 127.416C304.587 127.548 304.072 127.394 304.072 127.394C304.072 127.394 302.473 126.543 300.776 125.228C299.083 123.914 298.333 122.979 298.166 122.78C297.992 122.577 297.706 122.435 297.587 122.435C297.471 122.435 297.303 122.577 297.242 122.944C297.184 123.321 296.528 127.822 296.528 127.822C296.528 127.822 296.241 128.106 296.067 128.077C295.894 128.051 294.606 127.023 294.406 126.936C294.204 126.849 293.856 126.791 293.689 126.762C293.515 126.74 292.569 127.42 292.482 127.252C292.395 127.078 292.855 126.45 293.257 126.308C293.657 126.166 293.805 126.221 293.834 126.05C293.863 125.879 292.398 118.784 292.398 118.784C292.398 118.784 292.256 118.156 291.992 118.046C291.735 117.93 289.636 118.504 289.414 118.671C289.182 118.842 289.153 119.644 289.153 119.644L288.465 119.812C288.465 119.812 287.744 122.264 287.634 122.892C287.522 123.517 287.061 124.545 287.721 124.658C288.384 124.768 288.561 123.521 288.986 122.979C289.672 122.093 290.335 122.174 290.335 122.206C290.335 122.206 288.671 124.143 288.812 124.913C288.957 125.68 290.821 127.648 290.995 128.621C291.233 129.965 293.402 138.394 293.402 138.394C293.402 138.394 293.605 138.704 293.891 138.675C294.178 138.652 295.527 137.624 295.527 137.624L295.729 136.313C295.729 136.313 296.763 136.999 296.988 136.88C297.223 136.767 299.547 135.34 301.436 134.544C303.274 133.774 304.198 133.294 305.289 133.207C306.377 133.12 307.236 133.152 307.294 133.435C307.352 133.722 306.947 134.605 305.028 135.485C303.104 136.368 301.526 136.828 301.356 136.999C301.182 137.17 300.609 137.937 300.461 138.707C300.323 139.474 300.261 140.843 300.261 140.843C300.261 140.843 304.575 139.873 307.298 138.053C310.03 136.229 311.949 134.322 311.949 134.322L312.177 130.845L308.53 129.044C308.53 129.044 307.954 129.069 308.015 128.673C308.067 128.28 308.73 126.108 308.646 125.912C308.559 125.709 308.498 125.483 307.98 125.483C307.465 125.48 306.879 125.692 306.631 125.908ZM303.01 131.689C302.35 131.689 299.573 131.95 299.196 132.118C298.823 132.292 298.51 131.95 298.852 131.663C299.196 131.38 300.342 130.297 302.756 130.355C305.167 130.413 307.175 131.322 307.43 131.463C307.693 131.608 308.009 132.092 307.893 132.15C307.78 132.205 307.088 132.292 306.802 132.15C306.515 132.005 303.676 131.689 303.01 131.689Z" fill="white"/>
<path d="M296.843 120.811C296.843 120.811 296.205 120.34 295.507 120.714C294.805 121.091 294.457 125.354 294.676 126.018C294.902 126.688 295.375 127.001 295.665 127.026C295.951 127.059 296.17 127.046 296.424 125.035C296.682 123.053 296.843 120.811 296.843 120.811Z" fill="white"/>
<path d="M297.86 114.937C297.86 114.937 297.764 116.045 297.764 116.261C297.764 116.487 297.413 116.609 297.255 116.702C297.097 116.799 293.946 117.244 293.946 117.244C293.946 117.244 293.595 117.115 293.438 117.334C293.277 117.553 293.145 118.094 293.312 118.981C293.473 119.828 293.724 120.302 294.039 120.24C294.361 120.179 296.808 119.37 297.062 119.229C297.474 119.01 297.764 119.293 297.764 119.293L297.86 120.337L298.526 120.373C298.526 120.373 300.087 118.79 301.066 118.761C302.054 118.726 333.727 118.504 333.727 118.504L333.794 118.249H334.203C334.203 118.249 334.647 118.942 335.22 118.913C335.796 118.881 338.056 118.22 338.056 117.84C338.056 117.305 335.915 116.741 335.22 116.767C334.525 116.796 334.3 117.334 334.3 117.334L333.888 117.398L333.63 117.047L301.166 116.699C301.166 116.699 299.669 116.074 299.254 115.662C298.845 115.252 298.652 115.001 298.523 114.933C298.398 114.875 297.86 114.937 297.86 114.937Z" fill="white"/>
<path fill-rule="evenodd" clip-rule="evenodd" d="M316.071 108.589C316.071 108.589 316.01 111.395 315.73 111.963C315.437 112.53 314.323 113.161 313.718 112.468C313.113 111.776 313.312 111.747 313.113 111.714C312.929 111.682 312.765 111.618 312.601 111.843C312.453 112.059 312.289 112.346 312.063 112.346C311.838 112.346 311.272 112.372 311.272 112.372V112.813C311.272 112.813 311.912 113.667 312.228 113.796C312.543 113.925 312.482 114.331 312.482 114.331C312.482 114.331 311.716 114.618 311.687 115.059C311.661 115.501 311.816 115.91 311.561 116.071C311.307 116.229 309.62 116.358 309.018 116.387C308.41 116.416 305.935 116.325 305.774 116.229C305.613 116.132 305.584 114.714 305.484 114.589C305.388 114.463 305.04 114.27 304.818 114.463C304.596 114.65 303.328 116.416 302.816 116.387C302.307 116.358 301.355 116.641 301.129 115.945C300.91 115.252 301.544 114.173 302.494 113.293C303.45 112.41 306.218 110.132 308.349 110.132C310.473 110.132 314.04 110.229 314.04 110.229C314.04 110.229 315.495 108.589 315.691 108.557C315.881 108.528 316.071 108.589 316.071 108.589ZM309.401 112.662C309.401 112.662 309.179 112.372 308.062 112.787C306.952 113.2 306.537 113.422 306.723 113.612C306.92 113.799 307.615 114.176 308.001 114.208C308.378 114.241 308.861 113.831 309.08 113.545C309.305 113.261 309.401 112.662 309.401 112.662Z" fill="white"/>
<path d="M315.601 116.045C315.63 115.791 315.659 114.56 315.44 114.337C315.218 114.118 314.739 113.928 314.236 114.498C313.718 115.069 313.567 116.106 313.696 116.174C313.818 116.235 314.327 116.329 314.655 116.329C314.97 116.325 315.569 116.296 315.601 116.045Z" fill="white"/>
<path d="M323.928 110.232C324.121 110.171 324.758 110.013 325.778 110.767C326.792 111.528 326.818 111.75 326.664 111.969C326.503 112.191 325.234 113.545 325.234 113.802C325.234 114.051 325.012 114.492 325.234 114.556C325.46 114.621 328.64 116.171 328.955 116.171C329.274 116.171 330.449 116.293 330.732 116.2C331.019 116.103 331.746 115.787 331.785 115.629C331.81 115.472 331.717 113.293 331.717 113.293C331.717 113.293 331.585 112.439 330.793 111.811C329.995 111.18 322.621 105.022 322.621 105.022C322.621 105.022 322.273 104.487 321.346 104.577C320.429 104.677 319.289 104.896 319.289 104.896C319.289 104.896 319.029 106.697 319.18 106.755C319.338 106.823 319.502 107.171 319.882 107.297C320.268 107.426 321.7 107.484 321.7 107.99C321.7 108.492 321.414 108.715 320.96 109.034C320.519 109.343 320.175 109.253 320.146 109.694C320.113 110.136 320.622 110.612 320.941 110.577C321.25 110.545 321.285 110.355 321.732 110.29C322.18 110.229 322.528 110.039 322.682 110.29C322.843 110.545 322.804 111.112 322.499 111.65C322.18 112.191 321.732 112.249 321.829 112.53C321.926 112.813 321.704 112.884 321.99 113.197C322.276 113.509 322.721 113.954 322.846 114.431C322.972 114.898 323.323 115.974 323.352 116.1C323.384 116.226 325.605 116.206 325.901 116.035C326.126 115.913 326.187 115.6 325.997 115.497C325.807 115.407 323.355 114.334 323.226 113.86C323.1 113.387 323.265 113.1 323.455 112.597C323.641 112.091 323.928 111.901 323.928 110.232Z" fill="white"/>
<path d="M318.814 99.5602V100.762L331.435 111.627C331.435 111.627 332.295 112.604 332.324 113.074C332.369 113.545 332.398 115.349 332.452 115.472C332.523 115.604 332.774 115.726 332.996 115.726C333.225 115.726 334.783 115.404 335.797 114.179C336.814 112.945 337.132 111.908 337.165 111.624C337.194 111.331 337.194 110.832 337.068 110.735C336.936 110.635 334.647 110.832 334.145 110.67C333.63 110.516 333.283 110.419 333.093 110.326C332.903 110.226 319.558 99.7181 319.558 99.7181L318.814 99.5602Z" fill="white"/>
<path d="M331.664 103.881C331.664 103.881 332.163 106.124 329.816 106.153C327.457 106.182 327.718 104.232 327.718 104.232L331.664 103.881Z" fill="white"/>
<path d="M338.308 103.285V103.852C338.308 103.852 337.799 104.516 337.416 104.806C337.033 105.093 335.955 105.624 335.955 105.624C335.955 105.624 336.557 107.042 336.557 107.584C336.557 108.122 336.627 109.701 336.627 109.701C336.627 109.701 336.495 110.2 335.292 110.229C334.081 110.268 333.695 109.823 333.666 109.665C333.637 109.507 333.512 107.835 333.512 107.835C333.512 107.835 333.222 107.013 332.964 106.73C332.71 106.446 332.488 106.13 332.424 105.879C332.366 105.624 332.993 104.174 333.09 104.013C333.187 103.855 333.441 103.636 333.441 103.636L338.308 103.285Z" fill="white"/>
<path d="M318.488 100.098V98.8675L309.051 91.0375L308.098 91.0697C308.098 91.0697 307.969 91.698 308.098 91.7657C308.224 91.8334 317.629 100.005 317.829 100.073C318.015 100.127 318.488 100.098 318.488 100.098Z" fill="white"/>
<path d="M305.52 88.4758C305.52 88.4758 305.491 89.6132 305.9 90.0579C306.309 90.4993 306.952 90.8183 307.519 90.3414C308.092 89.8645 307.68 89.3039 307.3 88.9204C306.92 88.5434 305.52 88.4758 305.52 88.4758Z" fill="white"/>
<path d="M349.064 104.381C349.064 104.381 350.213 104.049 350.793 102.483C351.369 100.92 351.562 99.1123 349.979 97.5946C348.401 96.0737 346.631 96.7407 346.296 96.8342C345.962 96.9309 344.864 97.4529 344.767 97.788C344.671 98.1166 344.671 98.4936 345.15 98.4453C345.627 98.4034 347.346 98.1134 348.302 99.5344C349.254 100.965 349.113 101.532 349.167 101.958C349.206 102.389 349.167 103.717 349.019 104.049C348.871 104.381 349.064 104.381 349.064 104.381Z" fill="white"/>
<path fill-rule="evenodd" clip-rule="evenodd" d="M340.891 109.369C340.852 109.778 340.987 110.886 340.987 110.886C340.987 110.886 341.563 110.983 342.416 110.928C343.282 110.886 344.238 111.028 344.573 111.308C344.905 111.595 345.143 111.879 344.95 112.12C344.763 112.356 343.25 112.346 342.626 112.253C342.078 112.182 339.787 111.122 339.552 110.786C339.31 110.458 338.998 110.509 338.811 110.751C338.615 110.986 336.294 114.634 336.011 114.966C335.721 115.304 335.709 115.752 335.992 115.845C336.397 115.987 336.825 115.668 337.112 115.907C337.402 116.145 336.916 116.777 337.872 117.06C338.831 117.344 338.979 117.389 339.217 117.147C339.452 116.915 340.617 114.85 340.704 114.679C340.788 114.508 340.759 114.308 340.443 114.109C340.128 113.912 339.008 113.142 339.008 113.142C339.008 113.142 339.297 112.971 339.7 113.058C340.096 113.142 341.563 113.857 341.673 113.97C341.792 114.086 341.766 114.569 341.715 114.682C341.654 114.798 340.279 117.308 339.986 117.618C339.7 117.93 338.554 119.47 337.546 119.67C336.542 119.87 336.516 119.696 336.375 119.644C336.224 119.583 335.966 119.271 335.425 119.213C334.878 119.155 322.534 119.271 322.534 119.271C322.534 119.271 322.074 119.329 321.871 119.551C321.668 119.78 321.556 120.808 321.501 121.033C321.44 121.262 320.931 121.52 320.699 121.574C320.468 121.632 319.689 121.745 319.293 122C318.887 122.258 318.224 122.883 318.224 122.883L318.195 125.905C318.195 125.905 318.453 128.663 319.061 130.722C319.663 132.772 320.036 135.108 320.545 135.34C321.066 135.565 321.35 135.395 321.588 135.311C321.81 135.224 322.965 134.425 323.139 134.283C323.307 134.148 323.426 133.919 323.332 133.603C323.249 133.287 322.502 131.434 322.245 130.61C321.987 129.788 321.556 128.103 321.672 127.79C321.784 127.474 321.9 127.217 322.164 127.217C322.418 127.217 323.281 128.045 323.487 128.248C323.677 128.441 325.032 129.926 325.318 129.926C325.608 129.926 325.862 129.897 325.862 129.897L325.801 126.169C325.801 126.169 325.547 125.709 324.173 125.109C322.788 124.51 320.667 124.194 320.667 124.194C320.667 124.194 320.497 123.74 320.667 123.688C320.841 123.63 323.651 123.26 324.887 123.83C326.123 124.4 326.014 124.426 326.149 124.626C326.297 124.829 326.358 126.292 326.439 126.479C326.554 126.736 326.525 127.049 327.073 126.965C327.62 126.878 327.584 126.588 328.161 126.566C328.74 126.543 330.082 126.45 330.317 126.543C330.542 126.62 330.491 126.711 330.655 126.711C330.832 126.711 331.492 126.653 331.492 126.653C331.492 126.653 331.318 126.024 331.028 125.796C330.745 125.573 330.452 125.315 330.34 125.029C330.224 124.742 330.166 123.662 330.166 123.662C330.166 123.662 330.34 124.091 330.861 124.462C331.379 124.832 331.84 124.916 332.094 125.286C332.355 125.657 332.387 125.796 332.297 125.999C332.213 126.195 331.778 126.678 331.717 126.965C331.669 127.252 331.46 127.565 331.576 127.735C331.692 127.906 333.446 130.039 333.446 130.039C333.446 130.039 333.735 130.213 333.967 130.155C334.196 130.097 335.599 127.755 336.867 127.02C338.126 126.279 338.303 125.622 340.994 125.283C343.694 124.942 345.188 125.051 345.188 125.051C345.188 125.051 345.497 124.942 345.329 124.797C345.152 124.655 343.514 123.659 341.364 123.827C339.214 123.998 338.187 124.71 337.865 124.71C337.55 124.71 336.314 124.423 335.795 123.969C335.28 123.514 334.221 122.348 334.16 121.858C334.106 121.378 334.16 121.349 334.16 121.349C334.16 121.349 334.395 121.262 334.617 121.378C334.852 121.494 335.103 121.832 335.251 121.832C335.403 121.832 336.809 121.858 337.002 121.806C337.205 121.745 337.897 121.69 338.782 121.007C339.674 120.324 341.856 117.56 342.944 115.278C344.035 113 344.734 113.026 344.734 113.026C344.734 113.026 344.354 114.991 344.097 115.736C343.836 116.477 343.514 117.044 343.553 117.45C343.578 117.843 343.9 118.442 344.76 118.984C345.622 119.528 345.96 119.441 345.989 119.3C346.018 119.155 346.475 116.309 346.54 115.507C346.594 114.711 346.627 113.744 346.475 113.287C346.33 112.829 346.018 112.514 345.989 112.143C345.96 111.776 345.873 111.341 346.018 111.173C346.169 111.009 347.566 110.264 347.541 108.354C347.512 106.562 346.678 106.047 346.678 106.047C346.678 106.047 346.536 105.618 346.678 105.479C346.82 105.338 348.658 104.052 348.223 102.26C347.795 100.466 347.045 99.2928 345.239 99.2412C343.434 99.18 342.317 100.83 342.362 101.632C342.429 102.425 343.047 103.424 344.18 103.424C345.297 103.424 344.982 102.828 345.838 102.886C346.697 102.94 346.787 103.656 346.762 103.913C346.736 104.165 346.243 105.338 345.642 105.392C345.033 105.454 343.688 105.537 343.688 105.537C343.688 105.537 342.825 105.731 342.284 106.166C341.737 106.588 341.045 107.129 341.045 107.129L341.103 107.561C341.103 107.561 343.25 108.044 343.224 108.325C343.199 108.611 343.086 108.698 342.706 108.814C342.336 108.921 340.936 108.953 340.891 109.369ZM328.556 122.432L330.42 122.293C330.42 122.293 330.942 121.636 331.63 121.352C332.322 121.065 333.182 120.498 333.182 120.498C333.182 120.498 331.601 120.215 330.285 121.007C328.962 121.806 328.556 122.432 328.556 122.432ZM335.828 125.567C335.828 125.567 335.882 125.789 335.709 125.941C335.541 126.079 334.74 126.846 334.421 126.875C334.106 126.904 333.671 126.395 333.697 126.134C333.729 125.876 333.822 125.535 333.822 125.535L335.828 125.567Z" fill="white"/>
<path d="M344.18 123.514C344.18 123.514 344.232 123.057 344.18 122.944C344.119 122.828 341.992 120.888 341.564 120.547C341.132 120.208 340.987 120.179 340.585 120.405C340.189 120.637 339.098 121.636 338.612 121.8C338.12 121.974 336.945 122.229 335.908 122.142C334.878 122.058 335.078 122.628 335.338 122.828C335.586 123.015 336.137 123.656 336.806 123.627C337.463 123.598 339.243 123.682 339.388 123.627C339.533 123.569 341.538 123.089 342.088 123.111C342.629 123.147 344.18 123.514 344.18 123.514Z" fill="white"/>
<path d="M343.029 118.865L362.744 135.282C362.744 135.282 363.265 135.681 362.947 136.168C362.634 136.651 362.145 136.313 362.145 136.313L341.964 119.954C341.964 119.954 341.478 119.296 341.909 118.926C342.337 118.549 343.029 118.865 343.029 118.865Z" fill="white"/>
<path fill-rule="evenodd" clip-rule="evenodd" d="M360.187 147.14C360.187 147.14 356.489 147.397 354.223 144.433C351.953 141.468 351.899 140.811 351.899 140.811C351.899 140.811 351.351 139.245 351.406 138.82C351.464 138.388 352.649 136.877 352.555 134.541C352.475 132.201 350.762 129.533 349.771 128.383C348.908 127.391 346.559 125.825 344.347 125.734C342.133 125.644 340.475 126.82 340.385 126.962C340.301 127.104 340.012 127.355 340.128 127.532C340.234 127.703 340.353 127.874 340.524 127.845C340.697 127.816 343.047 127.787 343.742 128.902C344.431 130.01 344.747 131.009 344.689 131.347C344.634 131.689 344.573 131.918 344.37 131.973C344.18 132.034 342.333 133.004 341.763 134.199C341.196 135.391 340.816 136.764 340.733 136.964C340.646 137.16 340.61 137.615 340.301 137.557C339.983 137.505 339.204 135.565 339.056 134.766C338.917 133.967 338.544 132.601 338.805 131.119C339.056 129.636 339.667 129.04 339.523 128.783C339.378 128.525 339.407 128.296 339.001 128.331C338.596 128.354 337.772 129.868 337.656 130.091C337.54 130.323 337.051 131.66 336.993 131.857C336.935 132.06 336.854 132.176 336.677 132.114C336.51 132.056 335.129 130.519 335.129 130.519L334.73 130.461V131.09C334.73 131.09 336.043 134.341 336.394 135.739C336.742 137.131 337.337 139.503 337.337 139.619C337.337 139.725 337.376 140.07 337.572 140.125C337.775 140.183 339.954 140.724 341.148 141.639C342.358 142.548 343.388 143.318 343.713 143.747C344.022 144.175 344.048 144.513 343.565 144.687C343.086 144.855 341.785 145 341.299 145.258C340.813 145.512 340.604 145.57 340.408 145.483C340.208 145.4 337.794 142.838 337.253 142.206C336.706 141.578 335.959 140.154 335.702 139.184C335.441 138.22 334.987 134.94 334.694 134.228C334.414 133.51 333.896 132.198 333.343 131.605C332.802 131.006 331.199 130.091 331.199 130.091V127.954C331.199 127.954 331.424 127.903 331.311 127.732C331.199 127.561 330.587 127.162 330.108 127.046C329.622 126.93 328.296 127.104 327.752 127.304C327.211 127.503 326.837 127.587 326.805 127.816C326.773 128.041 327.063 131.318 327.04 131.463C327.008 131.605 327.04 131.892 326.773 131.892C326.522 131.892 324.401 131.318 324.282 131.344C324.166 131.373 324.053 131.657 324.25 131.857C324.452 132.06 326.087 134.199 326.087 134.199C326.087 134.199 326.252 134.341 326.461 134.254C326.667 134.17 326.773 133.6 326.924 133.655C327.066 133.713 327.472 134.682 327.555 135.082C327.636 135.478 327.613 136.107 327.781 136.194C327.954 136.277 329.155 136.277 329.155 136.277C329.155 136.277 329.213 137.054 329.532 137.389C329.847 137.731 330.565 138.014 330.967 137.676C331.376 137.338 331.376 136.448 331.057 136.11C330.742 135.768 329.969 135.652 329.969 135.652C329.969 135.652 330.339 134.28 330.397 133.803C330.455 133.316 330.632 131.86 330.632 131.86C330.632 131.86 330.687 131.808 330.883 131.834C331.086 131.86 331.913 132.607 332.068 133.432C332.21 134.254 333.005 136.339 332.805 138.446C332.602 140.56 332.493 140.837 332.412 141.011C332.319 141.178 331.746 142.068 330.88 142.638C330.018 143.205 328.012 144.265 325.836 146.224C323.644 148.193 321.752 150.874 321.411 151.812C321.063 152.756 321.237 152.669 321.237 152.669C321.237 152.669 321.787 152.869 321.964 152.869C322.138 152.869 326.178 152.898 326.178 152.898C326.178 152.898 326.525 152.782 326.58 152.64C326.641 152.501 327.726 149.762 330.945 148.512C334.154 147.259 335.219 147.085 335.94 147.117C336.651 147.143 336.709 147.03 336.883 147.143C337.057 147.259 337.974 149.878 338.776 149.962C339.574 150.046 339.983 150.336 340.697 149.849C341.415 149.36 342.22 147.852 343.086 147.227C343.942 146.592 344.663 145.767 345.519 145.767C346.382 145.767 346.147 146.054 346.298 146.253C346.44 146.453 346.781 147.481 347.27 147.935C347.759 148.393 348.931 149.105 348.931 149.105H351.345V148.532C351.345 148.532 350 147.568 349.365 146.141C348.735 144.716 348.561 143.55 348.503 142.409C348.448 141.265 348.503 139.815 348.242 139.078C347.988 138.336 347.296 137.338 346.922 137.109C346.552 136.88 346.005 136.625 346.005 136.625C346.005 136.625 345.799 136.31 346.353 135.971C346.9 135.63 347.988 135.63 348.355 135.797C348.731 135.971 349.388 136.564 349.536 137.054C349.681 137.534 349.848 139.132 349.681 139.783C349.507 140.437 348.558 143.859 350.45 145.741C352.349 147.62 354.47 148.306 355.188 148.477C355.906 148.648 358.059 148.67 358.693 148.448C359.328 148.219 360.209 147.591 360.209 147.591L360.187 147.14ZM348.509 132.836C348.509 132.836 345.558 132.52 345.213 134.235C344.814 136.194 344.924 136.625 345.039 136.935C345.149 137.251 345.902 137.679 346.044 138.224C346.192 138.759 346.124 142.467 346.124 142.467L345.989 144.803C345.989 144.803 345.67 145.116 345.384 144.945C345.094 144.771 344.602 144.288 344.373 142.893C344.148 141.501 343.543 137.908 343.684 136.538C343.832 135.175 344.293 133.036 345.036 132.52C345.78 132.011 346.324 131.811 346.81 131.834C347.299 131.86 348.561 132.52 348.561 132.52L348.387 132.862L348.509 132.836ZM324.288 150.761L324.343 150.075C324.343 150.075 326.261 147.339 329.081 145.744C331.897 144.146 333.217 143.666 333.217 143.666C333.217 143.666 334.53 143.096 334.794 143.892C335.048 144.691 334.588 144.749 333.809 144.974C333.04 145.2 330.32 146.115 328.875 147.481C327.439 148.851 325.917 150.765 325.917 150.765H324.288V150.761Z" fill="white"/>
</svg>
