<svg width="146" height="91" viewBox="0 0 146 91" fill="none" xmlns="http://www.w3.org/2000/svg">
<path d="M46.3281 11.165C46.3281 10.204 47.0322 9.82227 48.0053 9.82227C48.9784 9.82227 50.0053 10.1276 50.0053 11.0887C50.0053 12.0542 48.9784 13.3116 48.0053 13.3116C47.0322 13.3116 46.3281 12.1305 46.3281 11.165Z" fill="white"/>
<path fill-rule="evenodd" clip-rule="evenodd" d="M32.3269 17.201C32.3269 17.201 29.2909 17.0797 29.0847 19.7428C28.9143 22.051 31.3672 22.4821 31.3672 22.4821C31.3672 22.4821 31.9726 22.5225 31.9277 23.0794C31.8829 23.6362 29.569 26.9324 32.8067 28.3156C35.874 29.6404 39.4435 26.7753 40.2776 26.1376C41.1252 25.5089 42.9997 22.8818 44.3226 22.8054C45.632 22.7291 46.7262 22.6842 46.7576 23.3219C46.8069 24.238 44.5199 24.3952 43.762 26.0208C43.3225 26.9684 43.5199 29.7212 43.5199 29.7212C43.5199 29.7212 42.8248 30.3499 42.8068 30.6777C42.771 31.3872 43.5198 30.9157 43.5647 31.5848C43.6095 32.2629 41.1297 34.6026 40.8875 35.1909C40.6767 35.7253 40.4929 37.5441 40.4929 37.5441C40.3718 37.0635 41.327 41.6665 42.8068 41.7474C44.2867 41.8282 49.641 39.5604 50.085 38.8464C50.5244 38.1368 50.8877 36.5022 50.4079 34.9215C49.9235 33.3317 49.4885 32.8467 49.5244 32.4111C49.5648 31.971 50.4078 30.3858 52.085 29.8694C52.6635 29.6987 52.4034 28.8814 52.0446 28.7916C50.3226 28.5267 48.6096 28.5581 48.5199 27.889C48.4392 27.2064 51.242 27.4085 51.1971 26.654C51.1657 25.8951 49.0446 25.19 49.0446 23.9147C49.0446 23.3982 50.7666 22.3294 50.7666 22.1633C50.7666 22.0824 49.3675 21.6064 49.2868 21.0945C49.0446 19.5452 49.0042 15.023 48.6858 14.7042C48.3675 14.3853 46.9683 13.9093 46.8473 14.7356C46.7262 15.5709 46.5289 20.1829 45.641 20.8205C44.771 21.4537 41.4481 22.1273 40.327 22.8818C39.2104 23.6362 36.9278 25.1002 35.7664 25.0643C34.6049 25.0284 33.5242 24.8308 33.5242 23.4701C33.5242 22.1273 41.327 21.6872 41.327 21.09C41.327 20.5017 32.6766 20.2322 32.2506 18.903C31.9277 17.9195 32.3269 17.201 32.3269 17.201ZM45.6051 32.4561C45.6051 32.4561 45.8831 34.0458 45.9235 34.8361C45.9638 35.631 45.6051 37.2611 47.0042 36.9782C48.3988 36.7088 47.7397 34.6475 47.6096 34.2389C47.1208 32.8153 45.6051 32.4561 45.6051 32.4561Z" fill="white"/>
<path d="M7.05883 39.9648H40.445C40.445 39.9648 41.5751 40.836 41.3733 42.0261C40.6916 42.0665 6.85703 42.0261 6.85703 42.0261C6.85703 42.0261 5.85701 41.7117 5.90185 40.9932C5.94221 40.2073 7.05883 39.9648 7.05883 39.9648Z" fill="white"/>
<path fill-rule="evenodd" clip-rule="evenodd" d="M40.9692 58.1154V53.472C40.9692 53.472 41.0051 52.4391 40.6105 51.7206C40.2114 51.0066 38.0544 47.8721 37.8436 47.7104C37.6508 47.5577 36.8122 47.3152 36.2876 47.7508C35.7719 48.1864 36.0499 48.86 36.2517 49.0621C36.449 49.2597 37.606 51.2805 37.7674 51.4018C37.9288 51.5275 37.6867 51.9227 37.4849 51.9227C37.2876 51.9227 32.4041 51.6039 29.7314 52.758C27.0453 53.9076 26.9331 54.0693 26.3322 54.0693C25.7358 54.0693 24.7672 53.3283 22.6102 53.1936C21.3322 53.1128 19.9734 53.7549 18.7357 53.8268C17.4891 53.9076 14.498 54.1052 13.2917 54.707C12.0988 55.2953 10.054 56.5302 8.69519 58.1199C7.33194 59.7052 6.69515 62.2155 5.65926 63.5986C4.61888 64.9952 3.21527 66.8948 1.93274 67.4921C1.8296 67.5325 4.41709 67.7705 4.29602 68.6462C4.14803 69.751 4.37675 70.429 3.21529 72.8945C2.05384 75.3554 1.25561 76.5499 0.457392 77.264C-0.345311 77.9825 1.93276 77.5065 2.25563 77.3448C2.56954 77.1831 3.25117 76.4691 3.77584 76.7071C4.29603 76.9451 3.77584 79.1725 3.49332 79.6845C3.21081 80.2099 2.41257 81.5526 2.41257 81.5526C2.41257 81.5526 3.73098 82.2352 5.13459 82.114C6.9687 81.9523 7.86109 80.0662 8.21087 78.8986C8.64585 77.4256 9.0091 72.1041 9.0091 72.1041C9.0091 72.1041 12.0943 72.9394 13.6504 72.899C15.3321 72.863 16.7267 71.9065 17.2917 72.7373C17.8478 73.5681 16.4128 76.8284 16.211 77.5738C16.0137 78.3372 12.4082 87.4759 12.1706 88.0642C11.9284 88.6615 11.9688 89.8919 11.9688 89.8919H18.4846C18.4846 89.8919 20.8479 82.8998 23.0048 80.0482C25.1663 77.1786 28.4399 74.3629 29.126 74.4483C29.8031 74.5201 28.3188 75.6742 28.3188 75.6742C28.3188 75.6742 25.0093 80.0033 23.9645 82.5451C22.9241 85.0913 22.1259 86.9954 22.1259 90.0536C22.1259 90.1254 25.2784 90.0356 25.2784 90.0356C25.2784 90.0356 26.0856 84.6512 27.0004 82.1499C27.9287 79.6485 29.6462 75.8359 30.4041 75.1533C30.8032 74.8075 30.283 73.8824 30.0857 73.9677C29.8839 74.0486 30.6417 73.4154 30.8435 73.3301C31.0453 73.2537 33.6776 72.5756 33.5207 71.0263C33.3637 69.477 31.1216 69.3558 30.7628 69.3153C30.4041 69.2839 26.7627 69.5983 26.4847 67.2137C26.2022 64.8291 30.4041 62.2873 30.4041 62.2873C30.4041 62.2873 34.449 59.1797 35.2786 59.3504C35.6777 59.4222 34.6732 60.4641 34.6732 60.4641C34.6732 60.4641 30.0812 65.1884 29.9197 65.6644C29.7583 66.1359 29.5161 66.7781 29.6821 66.9712C29.839 67.1733 31.0812 66.4907 31.8794 66.8499C32.6821 67.2092 32.9153 67.3709 33.274 68.0085C33.6418 68.6417 34.6732 71.0982 36.6328 71.0173C38.597 70.9365 38.9557 69.0729 39.1575 68.745C39.3549 68.4352 43.032 62.5119 43.032 62.5119C43.032 62.5119 43.3191 61.8383 42.5612 61.6811C41.7944 61.5194 37.7091 62.5613 37.1934 62.1571C36.6732 61.7619 36.9557 58.8609 36.9109 58.3041C36.8705 57.7562 36.4355 57.5586 35.718 57.5047C35.144 57.4822 33.6328 57.1948 28.6776 59.6153C23.7223 62.0448 23.2022 62.714 21.9645 62.7589C20.7223 62.7948 19.8747 63.0373 19.6819 62.6331C19.4801 62.2379 19.4442 59.4582 20.1662 58.3041C20.8748 57.1589 22.2918 54.8866 23.9196 55.6455C24.6013 55.9644 24.1214 56.6021 24.1214 56.6021C24.1214 56.6021 22.4757 60.1722 23.4757 60.1722C24.4802 60.1722 28.126 59.9791 28.126 59.9791C28.126 59.9791 28.8838 57.4688 29.7224 56.6739C30.561 55.879 31.3592 54.4824 34.4445 54.7339C37.5207 54.9674 38.1934 55.8027 38.2427 56.126C38.2831 56.4359 37.8346 61.0434 38.2831 61.1242C38.7181 61.2051 43.6823 60.6482 43.8751 60.4551C44.0814 60.253 44.5209 59.6558 44.4805 59.2606C44.4446 58.8609 44.4446 58.4298 43.5702 58.2636C42.6868 58.1154 40.9692 58.1154 40.9692 58.1154ZM19.3725 65.8215C19.3725 65.8215 18.4173 70.7479 18.6505 70.8287C18.9016 70.9096 21.5384 70.5503 21.4129 69.3109C21.2111 67.2855 19.3725 65.8215 19.3725 65.8215ZM20.8568 73.4109C20.4577 73.8465 15.4173 87.2199 15.2155 87.5882C15.0181 87.9429 15.2962 88.4684 16.0541 86.955C16.8209 85.4506 24.691 74.2103 25.0183 73.8061C25.3322 73.4109 25.7717 72.9708 25.6147 72.6969C25.4533 72.4184 24.534 72.2568 23.7717 72.4948C23.0138 72.7328 21.2559 72.9663 20.8568 73.4109ZM14.7401 57.9942C14.332 58.1963 11.3813 59.5031 10.6997 61.7709C10.0136 64.0342 8.61896 68.7136 9.09879 69.5938C9.5831 70.465 10.462 70.3437 11.0943 69.7914C11.7401 69.2255 12.5024 68.0849 12.5383 67.281C12.5787 66.4907 12.5024 65.103 12.9374 63.6705C13.3814 62.2424 13.9015 60.2575 14.2962 59.4986C14.6908 58.7531 14.9733 58.1559 14.7401 57.9942Z" fill="white"/>
<path d="M45.0826 62.923C45.0826 62.923 44.8404 62.1686 44.4817 62.1282C44.1229 62.0877 43.6386 63.0802 43.6386 63.0802L40.8 67.5754C40.8 67.5754 40.5264 68.4107 40.8807 68.5634C41.2439 68.7206 43.4368 68.7206 44.0781 68.6038C44.7193 68.4826 46.0826 68.3613 46.2351 67.9257C46.4055 67.4901 45.0826 62.923 45.0826 62.923Z" fill="white"/>
<path d="M45.0098 69.9607C45.0098 69.2512 45.5434 68.6719 46.2161 68.6719C46.8753 68.6719 47.4134 69.2512 47.4134 69.9607C47.4134 70.6747 46.8753 71.2541 46.2161 71.2541C45.5434 71.2541 45.0098 70.6747 45.0098 69.9607Z" fill="white"/>
<path d="M66.104 52.482C66.104 52.482 66.8709 51.7635 67.7991 51.521C68.7184 51.2829 71.2028 51.2021 71.2028 51.2021L72.0369 49.3789C72.0369 49.3789 72.279 48.8984 72.723 48.8984C73.1669 48.8984 73.3553 50.4117 73.3104 50.9731C73.2701 51.5209 74.1894 51.723 74.5616 51.6377C74.9158 51.5614 75.2701 51.476 75.3553 50.8069C75.4315 50.1288 75.6782 49.1768 75.6782 49.1768C75.6782 49.1768 76.1939 49.0151 76.3239 49.3744C76.436 49.7336 76.3239 51.5165 77.0728 51.476C77.8352 51.4446 79.6872 51.4626 79.6872 51.4626L79.7545 45.9165C79.7545 45.9165 79.7276 45.4809 79.4047 45.2025C79.0773 44.924 77.4405 45.0812 77.4405 45.0812L76.2342 43.4511C76.2342 43.4511 75.5661 43.2131 75.3598 43.2131C75.1625 43.2131 71.5615 43.1816 71.5615 43.1816C71.5615 43.1816 70.8037 43.3388 70.6781 43.5768C70.566 43.8148 70.5974 44.4121 70.7678 44.5334C70.9202 44.6456 71.8171 45.674 72.4136 46.2354C72.6602 46.6844 72.4136 47.2682 72.4136 47.2682C72.4136 47.2682 70.8485 48.3415 70.5974 48.2966C70.3597 48.2652 70.1579 47.9822 70.0817 47.3131C70.001 46.635 69.5615 44.1337 69.5615 44.1337C69.5615 44.1337 69.5615 43.7385 69.3642 43.5768C69.1579 43.4197 62.521 43.1816 62.521 43.1816C62.521 43.1816 60.965 43.4511 60.1622 43.972C59.364 44.4795 59.095 44.924 59.1264 45.2025C59.1622 45.4809 60.364 46.2309 60.5255 46.3207C60.6824 46.3925 67.3642 49.6079 68.0458 49.7336C68.7229 49.8504 69.279 50.4072 69.0009 50.3713C68.7184 50.3309 67.9561 50.286 67.7991 50.1288C67.6377 49.9672 60.3192 46.8326 60.1219 46.635C59.9201 46.4329 58.4896 45.5213 58.1577 45.4001C57.8438 45.2788 57.2833 45.2025 56.5658 45.8761C55.8393 46.5542 55.3415 46.891 55.4402 47.1155C55.6061 47.4703 55.9335 48.3864 59.3371 51.0045C62.6556 53.5642 63.9246 53.9549 63.9246 53.9549C63.9246 53.9549 64.5211 53.9819 64.7946 53.8202L66.104 52.482Z" fill="white"/>
<path fill-rule="evenodd" clip-rule="evenodd" d="M48.5653 56.9592C48.5653 56.9592 49.7671 57.3993 50.1213 58.0729C50.4846 58.751 50.9285 63.866 51.7671 64.5441C52.6057 65.2222 53.4039 64.7012 53.6819 65.1009C53.9689 65.4961 55.8882 65.2671 55.8882 65.2671C55.8882 65.2671 55.969 64.1085 55.4892 63.7133C55.0048 63.3181 54.7672 63.0756 54.4846 63.1609C54.2066 63.2417 53.3994 64.0321 53.081 63.9603C52.7626 63.8704 52.5609 63.6414 52.3994 62.7657C52.238 61.89 51.5653 56.6089 51.4442 56.3709C51.3232 56.1329 51.0406 55.8545 50.7581 55.8904C50.4801 55.9353 49.9958 56.4113 49.7177 56.5281C49.4442 56.6449 48.5653 56.9592 48.5653 56.9592ZM67.1979 52.473C66.0992 52.8187 65.2785 54.4174 64.8391 54.5746C64.3503 54.7587 63.6328 54.5432 63.6328 54.5432C63.6328 54.5432 61.404 53.3576 59.0408 51.5254C56.682 49.6932 55.6371 48.3909 55.404 48.1125C55.1618 47.8295 54.7627 47.6319 54.5967 47.6319C54.4353 47.6319 54.2021 47.8295 54.1169 48.3415C54.0362 48.8669 53.1214 55.1405 53.1214 55.1405C53.1214 55.1405 52.7223 55.5356 52.4801 55.4952C52.238 55.4593 50.4442 54.0268 50.1662 53.9055C49.8837 53.7843 49.3994 53.7034 49.1662 53.663C48.924 53.6316 47.6056 54.5791 47.4845 54.3456C47.3635 54.1031 48.0047 53.2274 48.5653 53.0298C49.1213 52.8322 49.3276 52.9086 49.368 52.6705C49.4083 52.4325 47.3679 42.5439 47.3679 42.5439C47.3679 42.5439 47.1706 41.6682 46.8029 41.5156C46.4441 41.3539 43.5204 42.1532 43.2109 42.3868C42.8881 42.6248 42.8477 43.743 42.8477 43.743L41.888 43.9765C41.888 43.9765 40.8835 47.3939 40.7311 48.2696C40.5741 49.1408 39.9329 50.5734 40.8522 50.7305C41.7759 50.8832 42.0226 49.1453 42.6145 48.3909C43.5697 47.1559 44.4935 47.2682 44.4935 47.3131C44.4935 47.3131 42.1751 50.012 42.3724 51.0853C42.5742 52.1541 45.1706 54.898 45.4128 56.2542C45.7446 58.1268 48.7671 69.8746 48.7671 69.8746C48.7671 69.8746 49.0496 70.3057 49.4487 70.2653C49.8478 70.2338 51.7268 68.8013 51.7268 68.8013L52.0093 66.9736C52.0093 66.9736 53.4488 67.9301 53.7627 67.7639C54.09 67.6067 57.3277 65.6173 59.9601 64.5081C62.5206 63.4348 63.8076 62.7657 65.3279 62.6445C66.8436 62.5232 68.0409 62.5681 68.1216 62.9633C68.2024 63.363 67.6373 64.5935 64.9646 65.8194C62.283 67.0499 60.0856 67.6921 59.848 67.9301C59.6058 68.1681 58.8076 69.2369 58.6013 70.3102C58.4085 71.379 58.3233 73.2875 58.3233 73.2875C58.3233 73.2875 64.3323 71.9358 68.1261 69.3986C71.9334 66.8568 74.606 64.1983 74.606 64.1983L74.9244 59.3528L69.8436 56.8425C69.8436 56.8425 69.0409 56.8784 69.1261 56.326C69.1979 55.7781 70.1217 52.7514 70.0051 52.4775C69.884 52.1945 69.7988 51.8802 69.0768 51.8802C68.3593 51.8757 67.5432 52.1721 67.1979 52.473ZM62.1529 60.5293C61.2336 60.5293 57.3636 60.8931 56.8389 61.1266C56.3187 61.3691 55.8838 60.8931 56.3591 60.4934C56.8389 60.0982 58.4354 58.5893 61.7987 58.6702C65.1574 58.751 67.9557 60.0174 68.31 60.215C68.6777 60.4171 69.1172 61.0907 68.9557 61.1715C68.7988 61.2479 67.8346 61.3691 67.4355 61.1715C67.0364 60.9694 63.0812 60.5293 62.1529 60.5293Z" fill="white"/>
<path d="M53.5617 45.3729C53.5617 45.3729 52.6738 44.7173 51.7007 45.2382C50.7231 45.7636 50.2388 51.7049 50.5437 52.63C50.8577 53.564 51.5169 53.9997 51.9205 54.0356C52.3196 54.0805 52.6245 54.0625 52.9788 51.2603C53.3375 48.4985 53.5617 45.3729 53.5617 45.3729Z" fill="white"/>
<path d="M54.9797 37.1838C54.9797 37.1838 54.8452 38.7286 54.8452 39.0295C54.8452 39.3439 54.3564 39.5145 54.1367 39.6447C53.9169 39.7795 49.5267 40.3992 49.5267 40.3992C49.5267 40.3992 49.0379 40.2196 48.8182 40.5249C48.594 40.8303 48.4101 41.5847 48.6433 42.8197C48.8675 44.0008 49.2173 44.6609 49.6568 44.5756C50.1052 44.4903 53.5133 43.3631 53.8676 43.1655C54.4416 42.8601 54.8452 43.2553 54.8452 43.2553L54.9797 44.7103L55.908 44.7597C55.908 44.7597 58.0829 42.5547 59.4461 42.5143C60.8228 42.4649 104.949 42.1551 104.949 42.1551L105.043 41.8003H105.613C105.613 41.8003 106.232 42.7658 107.03 42.7254C107.833 42.6805 110.981 41.7599 110.981 41.23C110.981 40.4845 107.998 39.6986 107.03 39.7346C106.061 39.775 105.747 40.5249 105.747 40.5249L105.173 40.6147L104.815 40.1253L59.5852 39.6403C59.5852 39.6403 57.4999 38.7691 56.9214 38.1942C56.3519 37.6239 56.0829 37.2736 55.9035 37.1793C55.7286 37.0985 54.9797 37.1838 54.9797 37.1838Z" fill="white"/>
<path fill-rule="evenodd" clip-rule="evenodd" d="M80.3495 28.339C80.3495 28.339 80.2643 32.2504 79.8741 33.0408C79.4661 33.8312 77.9145 34.7113 77.0714 33.7458C76.2283 32.7803 76.5064 32.7399 76.2284 32.695C75.9728 32.6501 75.7441 32.5603 75.5153 32.8746C75.3091 33.1755 75.0804 33.5752 74.7665 33.5752C74.4526 33.5752 73.6633 33.6111 73.6633 33.6111V34.2263C73.6633 34.2263 74.5557 35.4164 74.9952 35.596C75.4346 35.7756 75.3494 36.3415 75.3494 36.3415C75.3494 36.3415 74.2821 36.7412 74.2418 37.3564C74.2059 37.9716 74.4212 38.5419 74.0669 38.7665C73.7126 38.9865 71.3628 39.1662 70.5242 39.2066C69.6767 39.247 66.2282 39.1212 66.004 38.9865C65.7798 38.8518 65.7394 36.8759 65.6004 36.7007C65.4659 36.5256 64.9816 36.2562 64.6721 36.5256C64.3627 36.7861 62.5959 39.247 61.8828 39.2066C61.1743 39.1662 59.8469 39.5613 59.533 38.5913C59.2281 37.6258 60.1115 36.1214 61.4344 34.8955C62.7663 33.665 66.6228 30.49 69.5915 30.49C72.5512 30.49 77.5198 30.6248 77.5198 30.6248C77.5198 30.6248 79.5468 28.339 79.8203 28.2941C80.0849 28.2537 80.3495 28.339 80.3495 28.339ZM71.0579 34.0153C71.0579 34.0153 70.7485 33.6111 69.1924 34.1904C67.6453 34.7652 67.0668 35.0751 67.3269 35.34C67.6004 35.6005 68.5691 36.1259 69.1072 36.1708C69.6319 36.2157 70.3045 35.6454 70.6094 35.2457C70.9233 34.8506 71.0579 34.0153 71.0579 34.0153Z" fill="white"/>
<path d="M79.6976 38.7294C79.738 38.3746 79.7783 36.6591 79.4734 36.3493C79.164 36.0439 78.4958 35.779 77.7962 36.5738C77.0743 37.3687 76.8635 38.8147 77.0429 38.909C77.2133 38.9943 77.9218 39.1246 78.3792 39.1246C78.8187 39.1201 79.6528 39.0797 79.6976 38.7294Z" fill="white"/>
<path d="M91.2974 30.6299C91.5665 30.5446 92.4544 30.3246 93.8759 31.3754C95.2885 32.4352 95.3244 32.7451 95.1091 33.0504C94.8849 33.3603 93.1181 35.2464 93.1181 35.6057C93.1181 35.9514 92.8086 36.5667 93.1181 36.6565C93.432 36.7463 97.8625 38.9064 98.302 38.9064C98.746 38.9064 100.383 39.077 100.777 38.9468C101.176 38.812 102.19 38.372 102.244 38.1519C102.28 37.9319 102.15 34.8961 102.15 34.8961C102.15 34.8961 101.966 33.7061 100.863 32.8304C99.7504 31.9502 89.4768 23.3684 89.4768 23.3684C89.4768 23.3684 88.9924 22.6229 87.7009 22.7487C86.4229 22.8879 84.8354 23.1933 84.8354 23.1933C84.8354 23.1933 84.4722 25.7036 84.683 25.7844C84.9027 25.8787 85.1314 26.3637 85.6605 26.5389C86.1987 26.7185 88.1942 26.7993 88.1942 27.5044C88.1942 28.2049 87.7951 28.5148 87.1628 28.9594C86.5484 29.3905 86.0686 29.2647 86.0283 29.88C85.9834 30.4952 86.6919 31.1598 87.1359 31.1104C87.5664 31.0655 87.6157 30.8006 88.2391 30.7108C88.8624 30.6254 89.3467 30.3605 89.562 30.7108C89.7862 31.0655 89.7324 31.8559 89.3063 32.6058C88.8624 33.3603 88.2391 33.4411 88.3736 33.8318C88.5081 34.227 88.1987 34.3258 88.5978 34.7614C88.9969 35.197 89.6158 35.8167 89.7907 36.4814C89.9656 37.1325 90.4544 38.6324 90.4947 38.8076C90.5396 38.9827 93.6338 38.9557 94.0463 38.7177C94.3602 38.5471 94.4454 38.1115 94.1809 37.9678C93.9163 37.842 90.4992 36.3466 90.3198 35.6865C90.1449 35.0263 90.3736 34.6267 90.6382 33.9261C90.8983 33.2211 91.2974 32.9561 91.2974 30.6299Z" fill="white"/>
<path d="M84.1719 15.752V17.427L101.755 32.5698C101.755 32.5698 102.952 33.9305 102.993 34.5861C103.056 35.2418 103.096 37.7566 103.172 37.9272C103.271 38.1113 103.621 38.282 103.93 38.282C104.248 38.282 106.419 37.8329 107.831 36.1264C109.249 34.4065 109.692 32.9605 109.737 32.5653C109.778 32.1566 109.778 31.4606 109.603 31.3258C109.419 31.1866 106.231 31.4606 105.531 31.236C104.813 31.0205 104.329 30.8858 104.065 30.7555C103.8 30.6163 85.2078 15.972 85.2078 15.972L84.1719 15.752Z" fill="white"/>
<path d="M102.074 21.7754C102.074 21.7754 102.769 24.9009 99.5002 24.9414C96.2131 24.9818 96.5764 22.2649 96.5764 22.2649L102.074 21.7754Z" fill="white"/>
<path d="M111.328 20.9453V21.7357C111.328 21.7357 110.619 22.6608 110.086 23.0649C109.552 23.4646 108.05 24.2056 108.05 24.2056C108.05 24.2056 108.888 26.1815 108.888 26.936C108.888 27.6859 108.987 29.8864 108.987 29.8864C108.987 29.8864 108.803 30.5824 107.126 30.6229C105.44 30.6767 104.902 30.057 104.861 29.837C104.821 29.6169 104.646 27.2862 104.646 27.2862C104.646 27.2862 104.242 26.1411 103.884 25.7459C103.529 25.3507 103.22 24.9106 103.13 24.5604C103.05 24.2056 103.924 22.1847 104.058 21.9602C104.193 21.7402 104.547 21.4348 104.547 21.4348L111.328 20.9453Z" fill="white"/>
<path d="M83.7193 16.5049V14.7894L70.5711 3.87695L69.2438 3.92186C69.2438 3.92186 69.0644 4.79756 69.2438 4.89186C69.4187 4.98617 82.522 16.3747 82.8 16.469C83.0601 16.5453 83.7193 16.5049 83.7193 16.5049Z" fill="white"/>
<path d="M65.653 0.306641C65.653 0.306641 65.6126 1.89187 66.1821 2.5116C66.7516 3.12683 67.6485 3.57141 68.4378 2.90678C69.236 2.24215 68.662 1.46076 68.1328 0.926365C67.6037 0.400948 65.653 0.306641 65.653 0.306641Z" fill="white"/>
<path d="M126.317 22.4744C126.317 22.4744 127.918 22.0119 128.725 19.8294C129.528 17.6513 129.797 15.132 127.59 13.0169C125.393 10.8973 122.927 11.8269 122.46 11.9571C121.994 12.0918 120.465 12.8193 120.33 13.2864C120.196 13.7444 120.196 14.2698 120.864 14.2025C121.528 14.1441 123.922 13.7399 125.254 15.7203C126.581 17.7142 126.384 18.5046 126.46 19.0974C126.514 19.6991 126.46 21.5493 126.254 22.0119C126.048 22.4744 126.317 22.4744 126.317 22.4744Z" fill="white"/>
<path fill-rule="evenodd" clip-rule="evenodd" d="M114.928 29.4234C114.874 29.9937 115.062 31.5385 115.062 31.5385C115.062 31.5385 115.865 31.6732 117.053 31.5969C118.26 31.5385 119.592 31.7361 120.058 32.1268C120.52 32.5265 120.852 32.9216 120.583 33.2584C120.323 33.5863 118.215 33.5728 117.345 33.4426C116.583 33.3438 113.39 31.8663 113.062 31.3993C112.726 30.9412 112.291 31.0131 112.031 31.3499C111.757 31.6777 108.524 36.7612 108.13 37.2238C107.726 37.6953 107.708 38.3195 108.103 38.4497C108.668 38.6473 109.264 38.2027 109.663 38.5351C110.067 38.8674 109.39 39.7476 110.722 40.1428C112.058 40.5379 112.264 40.6008 112.596 40.264C112.923 39.9407 114.547 37.0621 114.668 36.8241C114.784 36.5861 114.744 36.3077 114.305 36.0292C113.865 35.7553 112.305 34.682 112.305 34.682C112.305 34.682 112.708 34.444 113.269 34.5653C113.82 34.682 115.865 35.679 116.018 35.8361C116.184 35.9978 116.148 36.6714 116.076 36.8286C115.991 36.9903 114.076 40.4885 113.668 40.9196C113.269 41.3552 111.672 43.5018 110.269 43.7803C108.87 44.0587 108.834 43.8162 108.636 43.7443C108.426 43.659 108.067 43.2234 107.313 43.1426C106.551 43.0617 89.3535 43.2234 89.3535 43.2234C89.3535 43.2234 88.7123 43.3042 88.4297 43.6141C88.1472 43.9329 87.9903 45.3655 87.9141 45.6798C87.8289 45.9987 87.1203 46.3579 86.7974 46.4343C86.4745 46.5151 85.3893 46.6723 84.8378 47.0271C84.2727 47.3863 83.3489 48.2575 83.3489 48.2575L83.3086 52.4698C83.3086 52.4698 83.6673 56.3139 84.5149 59.1835C85.3535 62.0396 85.8737 65.2954 86.5822 65.6187C87.3087 65.9331 87.7033 65.6951 88.0351 65.5783C88.3445 65.4571 89.9544 64.3433 90.1966 64.1458C90.4298 63.9571 90.5957 63.6383 90.4657 63.1982C90.3491 62.7581 89.3087 60.1759 88.9499 59.0263C88.5912 57.8812 87.9903 55.5325 88.1517 55.0969C88.3087 54.6568 88.4701 54.2976 88.8378 54.2976C89.1921 54.2976 90.3939 55.4517 90.6809 55.7346C90.9455 56.0041 92.8334 58.0743 93.2325 58.0743C93.6361 58.0743 93.9904 58.0339 93.9904 58.0339L93.9052 52.8381C93.9052 52.8381 93.5509 52.1959 91.6361 51.3606C89.7078 50.5253 86.7526 50.0852 86.7526 50.0852C86.7526 50.0852 86.5149 49.4521 86.7526 49.3802C86.9947 49.2994 90.9096 48.7829 92.6316 49.5778C94.3536 50.3727 94.2012 50.4086 94.3895 50.687C94.5958 50.9699 94.681 53.0087 94.7931 53.2692C94.9545 53.6284 94.9142 54.064 95.6765 53.9473C96.4389 53.826 96.3895 53.4219 97.1922 53.3904C97.9994 53.359 99.8694 53.2288 100.197 53.359C100.511 53.4668 100.439 53.5925 100.668 53.5925C100.914 53.5925 101.834 53.5117 101.834 53.5117C101.834 53.5117 101.591 52.636 101.188 52.3171C100.793 52.0073 100.385 51.648 100.228 51.2483C100.067 50.8487 99.986 49.3443 99.986 49.3443C99.986 49.3443 100.228 49.9416 100.955 50.458C101.677 50.9744 102.318 51.0912 102.672 51.6076C103.035 52.1241 103.08 52.3171 102.955 52.6001C102.838 52.874 102.233 53.5476 102.147 53.9473C102.08 54.347 101.789 54.7826 101.95 55.0206C102.112 55.2586 104.556 58.2315 104.556 58.2315C104.556 58.2315 104.959 58.474 105.282 58.3931C105.6 58.3123 107.556 55.0475 109.322 54.0236C111.076 52.9908 111.322 52.0746 115.071 51.6031C118.834 51.1271 120.915 51.2798 120.915 51.2798C120.915 51.2798 121.345 51.1271 121.112 50.925C120.865 50.7274 118.583 49.3398 115.587 49.5733C112.592 49.8113 111.161 50.8038 110.713 50.8038C110.273 50.8038 108.551 50.4041 107.829 49.7709C107.112 49.1377 105.636 47.5121 105.551 46.8295C105.475 46.1603 105.551 46.1199 105.551 46.1199C105.551 46.1199 105.878 45.9987 106.188 46.1603C106.515 46.322 106.865 46.7935 107.071 46.7935C107.282 46.7935 109.242 46.8295 109.511 46.7576C109.793 46.6723 110.757 46.5959 111.991 45.6439C113.233 44.6919 116.273 40.8388 117.789 37.6594C119.309 34.4844 120.282 34.5203 120.282 34.5203C120.282 34.5203 119.753 37.2597 119.394 38.2971C119.031 39.3299 118.583 40.1203 118.636 40.6861C118.672 41.234 119.121 42.0693 120.318 42.8237C121.52 43.5827 121.991 43.4614 122.031 43.2638C122.072 43.0617 122.708 39.0964 122.798 37.9782C122.874 36.869 122.919 35.5218 122.708 34.8841C122.507 34.2464 122.072 33.8063 122.031 33.2899C121.991 32.7779 121.87 32.1717 122.072 31.9382C122.282 31.7091 124.229 30.6718 124.193 28.0088C124.152 25.5119 122.991 24.7934 122.991 24.7934C122.991 24.7934 122.794 24.1961 122.991 24.003C123.188 23.8054 125.749 22.0136 125.143 19.5168C124.547 17.0154 123.502 15.3808 120.986 15.309C118.471 15.2236 116.915 17.5229 116.977 18.6411C117.071 19.7458 117.932 21.1379 119.511 21.1379C121.067 21.1379 120.628 20.3071 121.82 20.388C123.018 20.4643 123.143 21.4613 123.107 21.8205C123.072 22.1708 122.385 23.8054 121.547 23.8818C120.699 23.9671 118.825 24.0839 118.825 24.0839C118.825 24.0839 117.623 24.3533 116.87 24.9596C116.107 25.5479 115.143 26.3023 115.143 26.3023L115.224 26.904C115.224 26.904 118.215 27.5777 118.179 27.9684C118.143 28.368 117.986 28.4893 117.457 28.651C116.941 28.7991 114.991 28.8441 114.928 29.4234ZM97.7438 47.6288L100.34 47.4357C100.34 47.4357 101.067 46.5196 102.026 46.1244C102.991 45.7247 104.188 44.9344 104.188 44.9344C104.188 44.9344 101.986 44.5392 100.152 45.6439C98.3088 46.7576 97.7438 47.6288 97.7438 47.6288ZM107.874 51.9983C107.874 51.9983 107.95 52.3082 107.708 52.5192C107.475 52.7123 106.358 53.7811 105.914 53.8215C105.475 53.862 104.869 53.1524 104.905 52.7887C104.95 52.4294 105.08 51.9534 105.08 51.9534L107.874 51.9983Z" fill="white"/>
<path d="M119.513 49.1378C119.513 49.1378 119.585 48.5001 119.513 48.343C119.428 48.1813 116.464 45.4779 115.867 45.0018C115.266 44.5303 115.064 44.4899 114.504 44.8043C113.952 45.1276 112.432 46.5197 111.755 46.7488C111.069 46.9913 109.432 47.346 107.988 47.2248C106.553 47.108 106.831 47.9029 107.194 48.1813C107.54 48.4418 108.306 49.3354 109.239 49.295C110.154 49.2546 112.634 49.3714 112.836 49.295C113.038 49.2142 115.831 48.5451 116.598 48.5765C117.351 48.6259 119.513 49.1378 119.513 49.1378Z" fill="white"/>
<path d="M117.907 42.657L145.374 65.5373C145.374 65.5373 146.1 66.0941 145.656 66.7722C145.221 67.4458 144.54 66.9743 144.54 66.9743L116.423 44.1748C116.423 44.1748 115.745 43.2587 116.346 42.7423C116.943 42.2168 117.907 42.657 117.907 42.657Z" fill="white"/>
<path fill-rule="evenodd" clip-rule="evenodd" d="M141.814 82.0654C141.814 82.0654 136.662 82.4247 133.505 78.2932C130.343 74.1617 130.267 73.2456 130.267 73.2456C130.267 73.2456 129.505 71.0631 129.581 70.4703C129.662 69.8686 131.312 67.7624 131.182 64.5066C131.07 61.2464 128.684 57.528 127.303 55.9248C126.101 54.5417 122.827 52.3592 119.747 52.2334C116.661 52.1077 114.352 53.7468 114.226 53.9444C114.11 54.142 113.706 54.4923 113.868 54.7393C114.016 54.9773 114.181 55.2153 114.419 55.1749C114.661 55.1345 117.935 55.094 118.904 56.6478C119.863 58.1927 120.303 59.5848 120.222 60.0563C120.146 60.5323 120.061 60.8512 119.778 60.9275C119.513 61.0128 116.939 62.3646 116.146 64.0306C115.356 65.6922 114.827 67.6052 114.711 67.8837C114.59 68.1576 114.54 68.7908 114.11 68.71C113.666 68.6381 112.581 65.9347 112.374 64.821C112.181 63.7073 111.661 61.8032 112.025 59.7375C112.374 57.6717 113.226 56.8409 113.025 56.4817C112.823 56.1224 112.863 55.8036 112.298 55.853C111.733 55.8844 110.585 57.9951 110.424 58.3049C110.262 58.6283 109.581 60.4919 109.5 60.7658C109.419 61.0488 109.307 61.2104 109.06 61.1251C108.827 61.0443 106.903 58.9022 106.903 58.9022L106.347 58.8214V59.697C106.347 59.697 108.177 64.2282 108.666 66.1772C109.15 68.1172 109.98 71.4224 109.98 71.584C109.98 71.7322 110.033 72.2127 110.307 72.2891C110.59 72.3699 113.625 73.1244 115.289 74.3997C116.975 75.6661 118.41 76.7394 118.863 77.3367C119.294 77.9339 119.33 78.4055 118.657 78.648C117.989 78.8815 116.177 79.0836 115.5 79.4428C114.823 79.7976 114.531 79.8784 114.258 79.7572C113.98 79.6404 110.616 76.0703 109.863 75.1901C109.101 74.3144 108.06 72.3295 107.702 70.9778C107.338 69.6351 106.706 65.0635 106.298 64.071C105.908 63.0696 105.186 61.2419 104.415 60.4156C103.661 59.5803 101.428 58.3049 101.428 58.3049V55.3276C101.428 55.3276 101.742 55.2557 101.585 55.0177C101.428 54.7797 100.576 54.2228 99.9077 54.0612C99.2306 53.8995 97.3831 54.142 96.6252 54.4204C95.8718 54.6988 95.3516 54.8156 95.3068 55.1345C95.2619 55.4488 95.6655 60.0159 95.6341 60.218C95.5893 60.4156 95.6341 60.8152 95.2619 60.8152C94.9121 60.8152 91.9569 60.0159 91.791 60.0518C91.6296 60.0922 91.4726 60.4874 91.7462 60.7658C92.0287 61.0488 94.3068 64.0306 94.3068 64.0306C94.3068 64.0306 94.5355 64.2282 94.827 64.107C95.114 63.9902 95.2619 63.1953 95.4727 63.2717C95.67 63.3525 96.2351 64.7042 96.3517 65.2611C96.4638 65.8134 96.4324 66.6891 96.6655 66.8104C96.9077 66.9271 98.5804 66.9271 98.5804 66.9271C98.5804 66.9271 98.6611 68.0094 99.105 68.4764C99.5445 68.9525 100.545 69.3476 101.105 68.8761C101.675 68.4046 101.675 67.1652 101.231 66.6936C100.791 66.2176 99.7149 66.0559 99.7149 66.0559C99.7149 66.0559 100.231 64.1429 100.311 63.4783C100.392 62.8002 100.639 60.7703 100.639 60.7703C100.639 60.7703 100.715 60.6985 100.988 60.7344C101.271 60.7703 102.424 61.8122 102.639 62.9618C102.836 64.107 103.944 67.0125 103.666 69.9494C103.383 72.8953 103.231 73.2815 103.119 73.524C102.989 73.7576 102.19 74.997 100.984 75.7919C99.7822 76.5822 96.9884 78.0597 93.957 80.7901C90.9031 83.5339 88.2663 87.2702 87.791 88.577C87.3067 89.8928 87.5488 89.7715 87.5488 89.7715C87.5488 89.7715 88.3157 90.05 88.5623 90.05C88.8045 90.05 94.4323 90.0904 94.4323 90.0904C94.4323 90.0904 94.9166 89.9287 94.9929 89.7311C95.0781 89.538 96.5893 85.7209 101.074 83.9785C105.545 82.2316 107.029 81.9891 108.033 82.034C109.024 82.0699 109.105 81.9127 109.347 82.0699C109.59 82.2316 110.868 85.8826 111.984 85.9993C113.096 86.1161 113.666 86.5202 114.661 85.8421C115.661 85.1595 116.782 83.0579 117.989 82.1867C119.182 81.302 120.186 80.1524 121.379 80.1524C122.581 80.1524 122.253 80.5521 122.464 80.8305C122.661 81.1089 123.137 82.5414 123.818 83.1746C124.5 83.8123 126.132 84.8048 126.132 84.8048H129.496V84.0054C129.496 84.0054 127.621 82.6627 126.738 80.6733C125.859 78.6884 125.617 77.0627 125.536 75.473C125.46 73.8788 125.536 71.858 125.173 70.8296C124.818 69.7967 123.854 68.4046 123.334 68.0858C122.818 67.7669 122.056 67.4121 122.056 67.4121C122.056 67.4121 121.769 66.9721 122.54 66.5005C123.303 66.0245 124.818 66.0245 125.33 66.258C125.854 66.5005 126.769 67.3268 126.975 68.0094C127.177 68.6785 127.41 70.9059 127.177 71.8131C126.935 72.7247 125.612 77.4938 128.249 80.1164C130.895 82.7345 133.85 83.6911 134.85 83.9291C135.85 84.1671 138.85 84.1985 139.733 83.8887C140.617 83.5698 141.846 82.6941 141.846 82.6941L141.814 82.0654ZM125.545 62.131C125.545 62.131 121.433 61.6909 120.953 64.08C120.397 66.8104 120.549 67.4121 120.711 67.8433C120.863 68.2833 121.913 68.8806 122.11 69.6395C122.316 70.385 122.222 75.5539 122.222 75.5539L122.034 78.8096C122.034 78.8096 121.59 79.2452 121.191 79.0072C120.787 78.7647 120.101 78.0911 119.783 76.1466C119.469 74.2066 118.626 69.1995 118.823 67.2909C119.029 65.3913 119.67 62.4095 120.706 61.6909C121.742 60.9814 122.5 60.703 123.177 60.7344C123.859 60.7703 125.617 61.6909 125.617 61.6909L125.375 62.167L125.545 62.131ZM91.8 87.113L91.8762 86.1565C91.8762 86.1565 94.5489 82.3439 98.4772 80.1209C102.401 77.8935 104.24 77.2244 104.24 77.2244C104.24 77.2244 106.069 76.4295 106.437 77.5388C106.791 78.6525 106.15 78.7333 105.065 79.0477C103.993 79.362 100.204 80.6374 98.1902 82.5415C96.1902 84.45 94.0691 87.1175 94.0691 87.1175H91.8V87.113Z" fill="white"/>
</svg>
