<svg width="9" height="24" viewBox="0 0 9 24" fill="none" xmlns="http://www.w3.org/2000/svg">
<path d="M5.76 20.4466C4.29809 21.6546 3.60301 21.9644 3.2622 21.9644C3.01556 21.9644 2.82271 21.7039 2.82271 21.4704C2.82271 21.0708 3.39224 19.764 3.50434 19.3014L6.908 10.5669C6.908 10.0864 6.85867 8.98619 5.81381 9.05804C5.20393 8.99068 0.773358 11.1013 1.20386 12.1252C1.62539 12.974 3.3788 10.5759 4.05145 11.3977C4.29361 11.7121 0.167969 20.8911 0.167969 22.4315C0.167969 23.0197 0.253184 23.9224 1.55365 23.9224C3.10525 23.9224 5.038 22.7413 6.11425 20.8058C5.99318 20.3163 5.76 20.4466 5.76 20.4466Z" fill="white"/>
<path d="M8.36979 2.40275C8.6254 1.83243 8.603 0.79058 7.80478 0.440302C7.23078 0.188821 6.45049 0.435793 6.05138 1.34741C5.63433 2.25454 5.99309 2.93265 6.594 3.20659C7.38773 3.56136 8.14109 2.91919 8.36979 2.40275Z" fill="white"/>
</svg>
