<svg width="15" height="24" viewBox="0 0 15 24" fill="none" xmlns="http://www.w3.org/2000/svg">
<path d="M14.7557 0.964844C11.5359 0.964844 0.746534 6.65013 0.405721 16.4624C0.203924 21.8468 2.74653 23.9978 6.81386 23.8272C9.59417 23.697 12.9799 21.3528 13.361 17.0731C13.8453 11.6483 9.97089 10.8804 8.08297 10.8714C7.6435 10.8669 5.60307 11.298 4.56269 11.8863C3.90349 10.6828 9.86327 2.47822 14.7557 1.77317C14.7557 1.76868 15.1234 1.40943 14.7557 0.964844ZM7.47753 12.6093C9.57622 12.6991 10.9978 14.7514 10.8094 17.4279C10.6929 19.2421 9.28476 22.9336 6.15018 22.6731C2.37882 22.3857 2.80485 17.5042 2.80485 16.651C2.80485 16.413 3.16805 12.4387 7.47753 12.6093Z" fill="white"/>
</svg>
