<svg width="12" height="16" viewBox="0 0 12 16" fill="none" xmlns="http://www.w3.org/2000/svg">
<path d="M8.18556 2.31889C8.90754 2.31889 9.03311 2.92963 9.03311 3.63917C9.03311 3.90412 8.12727 6.2348 4.60704 7.4967C4.60704 7.4967 4.79088 6.29319 5.15412 5.45342C6.24382 3.64365 6.62051 2.31889 8.18556 2.31889ZM5.27072 13.887C4.30209 13.8197 3.57115 13.3392 3.57115 11.6551C3.57115 10.7615 4.11824 9.31097 4.23932 9.13134C9.39635 6.12703 11.1587 5.51629 11.3291 3.06884C11.4457 1.57342 10.6968 0.845908 9.22594 0.756093C5.33799 0.513593 0.970197 7.56857 0.781853 11.3632C0.683197 13.5008 0.651825 15.9977 3.68775 15.8764C6.36043 15.7462 9.94793 12.2165 9.0376 12.0279C8.54881 11.7225 6.83128 13.9903 5.27072 13.887Z" fill="white"/>
</svg>
