<svg width="12" height="24" viewBox="0 0 12 24" fill="none" xmlns="http://www.w3.org/2000/svg">
<path d="M0.989868 23.5954H8.75681C8.75681 23.5954 9.12451 23.034 8.63123 22.796C7.54153 22.796 7.23212 22.6119 6.93615 22.0775C6.64019 21.5297 6.93613 18.2829 7.78368 15.6288L11.5999 2.0174C11.7434 1.47851 11.9856 0.962074 11.6627 0.809389C11.2591 0.607306 10.8241 0.661184 10.0931 0.966554C9.06622 1.46952 7.60432 2.2599 6.56843 2.86166C5.67604 3.37361 5.06616 3.76877 5.60428 4.24029C6.02581 4.30316 8.42048 3.27031 8.33079 3.63855L3.5325 20.8605C3.15133 22.3829 2.71187 22.6568 0.940547 22.8544C0.321703 23.1598 0.989868 23.5954 0.989868 23.5954Z" fill="white"/>
</svg>
