<svg width="11" height="16" viewBox="0 0 11 16" fill="none" xmlns="http://www.w3.org/2000/svg">
<path d="M1.92023 12.7527C0.610791 13.0086 0.642168 14.9172 1.37312 15.2226C1.8395 15.4202 2.96957 15.8872 3.79918 15.8872C5.35078 15.8872 8.83513 15.0654 8.83513 11.4908C8.83513 8.69753 5.86647 6.26355 5.86647 4.19781C5.86647 2.44193 7.00998 2.14553 7.92928 2.44192C8.16695 2.52275 8.69611 3.72628 9.445 3.65442C10.306 3.57359 11.1446 2.63055 10.4136 1.67852C9.9069 1.02287 8.79477 0.870175 7.74543 0.942027C5.13552 1.13064 3.6781 3.65444 3.74088 5.46421C3.8216 7.98351 6.53464 10.4579 6.53464 12.6314C6.53464 13.7182 6.44048 14.7421 4.89337 14.7421C2.65118 14.7421 3.43146 12.4473 1.92023 12.7527Z" fill="white"/>
</svg>
