<svg width="16" height="15" viewBox="0 0 16 15" fill="none" xmlns="http://www.w3.org/2000/svg">
<path d="M14.2572 10.9665C14.0196 11.0294 12.2796 12.664 11.728 12.664C11.6697 12.664 11.2841 12.5966 11.2841 12.1027C11.2841 11.1147 15.3514 3.82173 15.3514 2.39368C15.3514 1.02849 14.7146 0.233604 13.4411 0.233604C11.1451 0.233604 8.73697 2.5284 6.61587 4.69293C6.61587 4.69293 7.4634 1.46857 6.15845 0.381806C4.36918 -1.10463 -0.0658769 3.79477 1.4633 4.03278C4.12701 1.62125 4.3064 2.63168 4.3064 3.12117C4.3064 3.81724 1.6382 10.5354 0.248047 14.375C0.611281 14.9902 1.58439 15.0621 2.31983 14.375C4.79072 10.001 6.25263 7.53106 7.28403 6.38592C8.05535 5.5237 10.5038 2.22749 11.8312 2.22749C12.3558 2.22749 12.589 2.29935 12.5621 2.87866C12.4993 4.27079 8.74146 10.7824 8.49482 12.893C8.38719 13.8271 8.4365 14.8824 9.70558 14.8824C11.1989 14.8869 15.8357 11.3796 14.2572 10.9665Z" fill="white"/>
</svg>
