<svg width="64" height="69" viewBox="0 0 64 69" fill="none" xmlns="http://www.w3.org/2000/svg">
<path d="M63.3814 65.7544C61.4576 65.6691 59.5338 65.5658 57.7221 65.4805C56.4665 64.4251 55.2333 63.3922 54.1032 62.3414C50.9328 59.3012 48.1031 56.1666 45.0448 53.0321C42.5559 50.4634 41.1793 47.962 38.6949 45.3889C36.4303 42.9189 34.1657 40.5434 31.9056 38.0734C30.7665 36.7442 29.7575 35.5047 28.623 34.2743C29.4167 34.18 30.9011 33.7444 33.5065 33.0708C36.2195 32.3208 37.816 32.0559 40.1882 30.7266C43.3586 28.9258 49.583 24.9335 49.583 16.3832C49.6996 12.4942 48.2287 9.72789 47.3184 8.40312C46.8744 7.54988 45.4977 5.41677 43.3452 3.98871C38.1388 0.56677 30.5602 0.688031 29.4347 0.688031C26.04 0.688031 22.7574 0.88563 19.3583 0.975445C13.134 1.07424 7.14285 1.07424 0.914056 0.975445L0.806408 3.16243C3.51945 3.36003 6.237 3.63844 8.95005 3.82705C9.28638 10.4734 9.28638 16.9355 9.28638 23.3887C9.28638 30.6143 9.28638 37.7277 9.17427 44.8634V53.791C9.05767 57.68 8.83345 61.578 8.26841 65.476C5.66299 65.5613 2.94996 65.6646 0.34902 65.7499L0.232422 68.0357C3.28628 67.9414 6.34463 67.9414 9.51059 68.0357C14.6093 68.0357 20.9726 67.9414 26.179 68.0357L26.2911 65.7499C23.6857 65.6646 21.1924 65.5613 18.5915 65.5613C18.1475 61.4837 17.8067 57.2983 17.578 53.2117C17.4614 49.4171 17.4614 45.6134 17.4614 41.913C17.4614 39.259 17.3448 36.596 17.2372 33.933L17.439 34.1216C23.0982 39.4341 27.6454 44.6883 32.9684 50.405C38.2823 55.996 43.269 61.6992 47.9013 67.6764C52.6592 67.4878 58.6324 67.9369 63.498 68.0312L63.3814 65.7544ZM18.9816 3.99321C22.0355 3.7058 21.6498 3.616 24.5871 3.616C27.9817 3.616 29.6768 3.55313 31.2688 3.92137C35.1119 4.9722 40.4304 8.20104 40.4304 16.1766C40.4304 19.8859 39.1882 24.3542 36.1343 27.2014C34.3226 28.9123 31.9459 29.7611 31.0356 30.1428C24.2507 32.8103 19.7709 32.231 17.6184 32.1367C17.7305 28.1534 17.7304 24.2465 17.8515 20.2587C18.0802 14.6587 18.5332 9.50335 18.9816 3.99321Z" fill="white"/>
</svg>
