<svg width="45" height="71" viewBox="0 0 45 71" fill="none" xmlns="http://www.w3.org/2000/svg">
<path d="M37.4433 12.4747C37.5509 8.96289 37.4433 5.43315 37.6675 1.81811C31.5867 0.578662 28.6584 0.394549 25.618 0.394549C22.2457 0.394549 9.20068 0.3182 3.12435 10.2113C0.873193 14.1138 0.644531 17.5357 0.644531 19.1613C0.644531 21.6313 0.832862 25.6146 5.11544 29.9885C6.13339 31.0304 7.93165 32.8446 11.1918 34.2727C14.5596 35.7906 16.7524 36.7426 20.2412 37.7979C25.9812 39.6032 31.645 41.0627 34.802 46.1013C36.4971 48.9529 36.6002 51.9932 36.6002 53.0395C36.6002 58.6574 34.3536 61.3249 32.2101 63.1257C28.6091 66.2692 24.8467 67.7018 19.7838 67.7018C14.0438 67.7018 9.1962 65.9863 7.39348 65.1286C5.93606 64.464 4.92259 63.705 4.47415 63.3143C4.13334 61.0285 3.79706 58.8505 3.45624 56.5647L0.86875 56.6501C0.980859 58.6529 0.980859 60.6513 0.980859 62.753C0.980859 64.7469 0.868754 66.7363 0.761129 68.7436C3.67597 69.5071 7.84195 70.266 15.0439 70.266C26.3086 70.266 32.497 67.7018 36.5554 65.0343C42.2909 61.2172 44.7707 56.2728 44.7707 50.1924C44.7707 41.8082 38.4702 37.6318 35.5419 35.9208C31.7212 33.8236 27.5463 32.674 26.1965 32.1935C20.2233 30.4017 14.129 29.0185 10.7568 23.7778C8.95853 20.9262 8.84642 17.9803 8.84642 16.934C8.84642 9.32215 13.4743 3.89732 22.017 3.4213C26.8467 3.16084 31.6181 4.77752 32.9724 5.25803C33.645 5.54095 33.6092 5.92265 34.2818 6.20107C34.5061 8.29376 34.6227 10.391 34.8469 12.4791H37.4433V12.4747Z" fill="white"/>
</svg>
