<svg width="56" height="68" viewBox="0 0 56 68" fill="none" xmlns="http://www.w3.org/2000/svg">
<path d="M55.7896 12.7729C55.8883 9.25218 55.8883 4.3932 56.0004 0.876953C46.6191 1.06107 37.3544 1.53261 27.982 1.53261C18.8204 1.53261 9.64988 1.06107 0.609382 0.876953C0.389647 4.38871 0.282031 9.27914 0.169922 12.8762H2.90095C3.1162 10.9766 3.32694 7.82863 3.55116 5.93803C11.2105 4.13275 13.9325 4.4067 23.3407 4.4067C23.4483 7.44244 23.9909 9.41835 23.9909 12.4451C23.9909 17.4702 23.7757 22.5987 23.7757 27.6148C23.6725 32.4514 23.6725 37.3867 23.6725 42.3175C23.4483 50.0012 23.2375 57.6803 22.6949 65.3595C19.9953 65.3595 17.2195 65.4628 14.5154 65.5526V67.8294C17.2195 67.7306 20.6546 67.6408 23.3497 67.6408C28.6233 67.542 34.8342 67.542 40.1123 67.8294L40.2244 65.5526C37.6414 65.4628 34.7624 65.3595 32.1794 65.3595C31.9552 61.0978 31.7399 56.8226 31.7399 52.5609C31.7399 45.4431 31.8565 38.2354 31.9552 31.2209C32.0718 24.9563 32.0718 18.795 32.2781 12.5394C32.3947 9.41386 32.7937 7.52776 33.1256 4.4022C44.0271 4.4022 46.4621 4.51445 52.6012 5.64612C52.7178 7.64001 52.9331 10.6713 53.0362 12.764H55.7896V12.7729Z" fill="white"/>
</svg>
